<?xml version="1.0" encoding="UTF-8" standalone="no"?>
<svg
   xmlns:dc="http://purl.org/dc/elements/1.1/"
   xmlns:cc="http://creativecommons.org/ns#"
   xmlns:rdf="http://www.w3.org/1999/02/22-rdf-syntax-ns#"
   xmlns:svg="http://www.w3.org/2000/svg"
   xmlns="http://www.w3.org/2000/svg"
   xmlns:sodipodi="http://sodipodi.sourceforge.net/DTD/sodipodi-0.dtd"
   xmlns:inkscape="http://www.inkscape.org/namespaces/inkscape"
   focusable="false"
   height="40"
   viewBox="0 0 202 40"
   width="202"
   version="1.1"
   preserveAspectRatio="xMidYMid meet"
   id="svg2"
   inkscape:version="0.91 r13725"
   sodipodi:docname="logo-light.svg">
  <metadata
     id="metadata24">
    <rdf:RDF>
      <cc:Work
         rdf:about="">
        <dc:format>image/svg+xml</dc:format>
        <dc:type
           rdf:resource="http://purl.org/dc/dcmitype/StillImage" />
      </cc:Work>
    </rdf:RDF>
  </metadata>
  <defs
     id="defs22" />
  <sodipodi:namedview
     pagecolor="#ffffff"
     bordercolor="#666666"
     borderopacity="1"
     objecttolerance="10"
     gridtolerance="10"
     guidetolerance="10"
     inkscape:pageopacity="0"
     inkscape:pageshadow="2"
     inkscape:window-width="1920"
     inkscape:window-height="1056"
     id="namedview20"
     showgrid="false"
     inkscape:zoom="11.80198"
     inkscape:cx="18.272066"
     inkscape:cy="18.616813"
     inkscape:window-x="0"
     inkscape:window-y="24"
     inkscape:window-maximized="1"
     inkscape:current-layer="svg2" />
  <path
     style="fill:#434241"
     d="m95.855 4.7578-2.5156 1.2246-2.4473-1.1953-.42578.63086 2.6797 2.0625h.26172l2.8047-2.1035-.35742-.61914zm15.881.30273c-.12834 0-.25644.03349-.38477.097656-.12833.055-.24292.13159-.34375.23242l-1.5273 1.623.49609.67383 1.9531-1.0312c.15583-.10083.28393-.22893.38476-.38477.11-.165.16406-.33109.16406-.49609 0-.14667-.0451-.28378-.13671-.41211-.165-.20167-.36714-.30273-.60547-.30273zm-48.053 3.0664-2.6816 7.3574c-.1375.37583-.25208.66357-.34375.86523-.09167.1925-.21977.35859-.38477.49609-.15583.1375-.35346.20508-.59180.20508v.94922h2.9434v-1.0996c-.3575 0-.68323.01352-.97656.04102.07333-.15583.15638-.36247.24805-.61914.10083-.25667.16391-.42081.19141-.49414l.22070-.64648 2.9824-.05469.27539.75586c.10083.25667.15234.47682.15234.66016 0 .36667-.22016.54883-.66016.54883v.90820h3.6992v-1.0586c-.22917 0-.49633.01352-.79883.04102-.01833-.18333-.06789-0.408-.15039-.67383-.0825-.275-.16104-.50417-.23437-.6875l-2.9277-7.4941h-.96289zm19.256 0-2.6816 7.3574c-.1375.37583-.25208.66357-.34375.86523-.09167.1925-.21976.35859-.38476.49609-.15583.1375-.35346.20508-.59180.20508v.94922h2.9414v-1.0996c-.3575 0-.68128.01352-.97461.04102.07333-.15583.15443-.36247.24609-.61914.10083-.25667.16586-.42081.19336-.49414l.22070-.64648 2.9824-.05469.27539.75586c.10083.25667.15039.47682.15039.66016 0 .36667-.21820.54883-.65820.54883v.90820h3.6973v-1.0586c-.22917 0-.49438.01352-.79688.04102-.01833-.18333-.06789-0.408-.15039-.67383-.0825-.275-.16104-.50417-.23438-.6875l-2.9297-7.4941h-.96094zm10.152.027344c-1.0175 0-1.8872.24914-2.6113.74414-.72417.495-1.2746 1.14-1.6504 1.9375-.36667.78833-.55078 1.6174-.55078 2.4883 0 .9075.19763 1.7386.59180 2.4902.39417.7425.94907 1.3289 1.6641 1.7598.71502.43083 1.5351.64648 2.4609.64648.70584 0 1.4204-.15708 2.1445-.46875.72417-.32083 1.3891-.89826 1.9941-1.7324l-.66015-.60547c-.385.52250-.86136.93578-1.4297 1.2383-.55917.3025-1.1321.45312-1.7188.45312-.605 0-1.1238-.16865-1.5547-.50781-.43083-.34833-.76106-.82919-.99023-1.4434-.22917-.61417-.34375-1.3152-.34375-2.1035 0-.6875.10556-1.3299.31641-1.9258.21083-.59583.52755-1.0722.94921-1.4297.43084-.36667.9542-.55078 1.5684-.55078 1.2925.018334 2.0611.78888 2.3086 2.3105h.89453v-3.2031h-1.0586l.0547.57617h-.0137c-.361-.2108-.754-.3749-1.185-.4941-.422-.1192-.817-.1797-1.184-.1797zm36.887 0c-1.0267 0-1.9073.25365-2.6406.75781-.72417.495-1.2681 1.1265-1.6348 1.8965-.36666.77-.55078 1.5631-.55078 2.3789 0 .86167.16414 1.6728.49414 2.4336.33.76083.85336 1.3853 1.5684 1.8711.715.48583 1.6227.72852 2.7227.72852 1.0267 0 1.9008-.25365 2.625-.75781.73333-.50417 1.2837-1.1402 1.6504-1.9102.36667-.77917.55078-1.5677.55078-2.3652 0-.81583-.1751-1.6089-.52344-2.3789-.34833-.77-.88325-1.4015-1.6074-1.8965-.715-.50417-1.6001-.75781-2.6543-.75781zm-56.481.2071-4.002.0137v1.0586l1.0312-.041016c-.03667.31167-.05469.72495-.05469 1.2383v5.2656c0 .3575-.03604.61820-.10938.78320-.07333.165-.17440.27508-.30273.33008-.12833.04583-.31695.07286-.56445.08203v.90820h3.9336c1.21 0 2.2142-.24268 3.0117-.72852.80667-.48583 1.3931-1.0993 1.7598-1.8418.37583-.75167.5625-1.5312.5625-2.3379 0-.7975-.19568-1.559-.58984-2.2832-.385-.72417-.97594-1.3106-1.7734-1.7598-.78833-.45833-1.7565-.6875-2.9023-.6875zm76.914 0-4.002.013672v1.0586l1.0312-.041016c-.0367.31167-.0547.72495-.0547 1.2383v5.2656c0 .3575-.036.61820-.10937.78320-.0733.165-.17441.27508-.30274.33008-.12833.04583-.31695.07286-.56445.08203v.90820h3.9336c1.21 0 2.2142-.24268 3.0117-.72852.80667-.48583 1.3931-1.0993 1.7598-1.8418.37583-.75167.5625-1.5312.5625-2.3379 0-.7975-.19568-1.559-.58985-2.2832-.385-.72417-.97594-1.3106-1.7734-1.7598-.78834-.45833-1.7565-.6875-2.9024-.6875zm-100.54.0137v1.0586l1.0449-.041016c-.03667.21083-.05469.62412-.05469 1.2383l.02734 5.2656c0 .3575-.03604.61820-.10938.78320-.07333.165-.17440.27508-.30273.33008-.12833.04583-.31695.07286-.56445.08203v.90820h3.1348v-1.0586c-.39417 0-.73792.01352-1.0312.04102.03667-.31167.05469-.72495.05469-1.2383l-.02734-4.2617h.01367c.275.39417.52669.73792.75586 1.0312l4.4004 5.623h1.1699v-7.6582c0-.3575.03604-.61820.10938-.78320.07333-.165.17440-.27057.30273-.31641.12833-.055.31695-.086536.56445-.095703v-.90820h-3.1367v1.0586l1.0312-.041016c-.0275.22917-.04102.64245-.04102 1.2383v4.3574h-.01367c-.25667-.36667-.57789-.80247-.96289-1.3066l-4.205-5.306h-2.1582zm48.045 0v1.0586l1.0449-.041016c-.0367.21083-.0547.62412-.0547 1.2383l.0273 5.2656c0 .3575-.038.61820-.11133.78320-.0733 0.165-.1744.27508-.30274.33008-.12833.04583-.315.07286-.5625.08203v.90820h3.1348v-1.0586c-.39417 0-.73792.01352-1.0312.04102.0367-.31167.0547-.72495.0547-1.2383l-.0274-4.2617h.0137c.27501.39417.5267.73792.75586 1.0312l4.4004 5.623h1.168v-7.6582c0-.3575.038-.61820.11133-.78320.0733-.165.1744-.27057.30274-.31641.12833-.055.315-.086536.5625-.095703v-.90820h-3.1348v1.0586l1.0312-.041016c-.0275.22917-.041.64245-.041 1.2383v4.3574h-.0137c-.25666-.36667-.57789-.80247-.96289-1.3066l-4.23-5.306h-2.1582zm10.662 0v1.0586l1.0312-.041016c-.0367.31167-.0547.72495-.0547 1.2383v5.2656c0 .3575-.038.61820-.11133.78320-.0733 0.165-.1744.27508-.30273.33008-.12834.04583-.315.07286-.5625.08203v.90820h3.9453v-1.0586c-.39417 0-.73792.01352-1.0312.04102.0367-.31167.0547-.72495.0547-1.2383v-5.2656c0-.3575.038-.61820.11133-.78320.0733-.165.1744-.27057.30273-.31641.12833-.055.315-.086536.5625-.095703v-.90820h-3.9453zm8.9414 0v1.0586l1.0312-.041016c-.0367.31167-.0547.72495-.0547 1.2383v5.2656c0 .3575-.0361.61820-.10938.78320-.0733 0.165-.1744.27508-.30273.33008-.1279.04568-.31624.07277-.5625.08203v.90820h4.1387v-1.0586c-.5225 0-.93128.01352-1.2246.04102.0367-.31167.0547-.72495.0547-1.2383v-1.9238h.16601c.29334-.0092.53151.0089.71485.05469.1925.04583.34312.16042.45312.34375.11917.17417.17969.44388.17969.81055h.90625v-3.3398h-1.0586c.0275.66917.0456 1.0625.0547 1.1816h-1.416v-2.3926c0-.33917.0316-.59537.0957-.76953.0733-.17417.1744-.28424.30273-.33008.12834-.055.30344-.086536.52344-.095703l.49414-.013672c.45834-.018333.84909.10526 1.1699.37109.33.25667.49415.72401.49415 1.4023h.9082l-.084-2.668h-6.875zm18.234 0v1.0586l1.0449-.041016c-.0367.21083-.0547.62412-.0547 1.2383l.0274 5.2656c0 .3575-.036.61820-.10938.78320-.0733.165-.1744.27508-.30273.33008-.12834.04583-.315.07286-.5625.08203v.90820h3.1348v-1.0586c-.39416 0-.73791.01352-1.0312.04102.0367-.31167.0547-.72495.0547-1.2383l-.0273-4.2617h.0137c.275.39417.52669.73792.75586 1.0312l4.4004 5.623h1.168v-7.6582c0-.3575.038-.61820.11133-.78320.0733-.165.17244-.27057.30078-.31641.12833-.055.31695-.086536.56445-.095703v-.90820h-3.1348v1.0586l1.0312-.041016c-.0275.22917-.041.64245-.041 1.2383v4.3574h-.0137c-.25667-.36667-.57789-.80247-.96289-1.3066l-4.22-5.306h-2.1602zm-5.8809.78320c.89833 0 1.5768.38625 2.0352 1.1562.45833.77.6875 1.8058.6875 3.1074 0 .62333-.0831 1.2233-.24805 1.8008-.165.5775-.43667 1.0539-.8125 1.4297-.37583.37583-.8612.56445-1.457.56445-.64167 0-1.1721-.21565-1.5938-.64648-.4125-.44-.7112-.98138-.89453-1.623-.18334-.64167-.27539-1.2822-.27539-1.9238 0-.63250.083-1.2434.24804-1.8301.165-.58667.43922-1.072.82422-1.457s.88133-.57812 1.4863-.57812zm-56.533.125c1.0358 0 1.8379.33474 2.4062 1.0039.56833.66917.85156 1.7004.85156 3.0938 0 .64167-.10557 1.2371-.31641 1.7871-.20167.54083-.51838.98115-.94922 1.3203-.43083.33917-.96576.50781-1.6074.50781-.18333 0-.33591-.0045-.45508-.01367l-.58984-.01367c-.12833 0-.21588.0045-.26172.01367.03667-.31167.05469-.72495.05469-1.2383v-5.293c0-.46750.06503-.77971.19336-.93555.1375-.15583.36216-.23242.67383-.23242zm76.914 0c1.0358 0 1.8379.33474 2.4062 1.0039.56833.66917.85156 1.7004.85156 3.0938 0 .64167-.10557 1.2371-.3164 1.7871-.20167.54083-.51839.98115-.94922 1.3203-.43084.33917-.96576.50781-1.6074.50781-.18333 0-.33591-.0045-.45507-.01367l-.58985-.01367c-.12836 0-.21592.0045-.26172.01367.0367-.31167.0547-.72495.0547-1.2383v-5.293c0-.46750.065-.77971.19336-.93555.1375-.15583.36216-.23242.67383-.23242zm-86.471 1.2637h.01367c.0825.50417.25760 1.1331.52344 1.8848l.63086 1.7188h-2.2949l.61914-1.7871c.1925-.55.36115-1.1564.50781-1.8164zm19.256 0h.01367c.0825.50417.25565 1.1331.52148 1.8848l.63281 1.7188h-2.2949l.61719-1.7871c.1925-.55.36310-1.1564.50977-1.8164zm110.71 9.707c-.165 0-.34266.08305-.53516.24805l-1.7324 1.6484.30273.40039 1.9922-1.2246c.29333-.18333.44141-.38547.44141-.60547 0-.11917-.029-.21573-.084-.28906-.0275-.03667-.077-.07271-.15039-.10938-.0642-.04583-.14274-.06836-.23437-.06836zm-58.408 2.9004c-1.0175 0-1.8891.25365-2.6133.75781-.72417.495-1.27 1.14-1.6367 1.9375-.3575.7975-.53515 1.6466-.53515 2.5449 0 .99.19567 1.8461.58984 2.5703.39417.72417.94456 1.2836 1.6504 1.6777.70583.385 1.5169.57812 2.4336.57812.31167 0 .65542-.03349 1.0312-.09766.37584-.06417.70157-.14977.97657-.25977.605-.23833 1.0994-.35742 1.4844-.35742h.3711v-2.1055c0-.42167.056-.79695.16601-1.127.11-.33917.38422-.50781.82422-.50781v-.45508h-3.1074v.60547l.96289-.05469v3.0117c-.33917.22917-.71896.40232-1.1406.52148-.4125.11-.81677.16602-1.2109.16602-.715 0-1.351-.19312-1.9102-.57812-.55917-.385-.99497-.91737-1.3066-1.5957-.31167-.67833-.4668-1.4469-.4668-2.3086 0-.83417.15513-1.5822.4668-2.2422.32083-.66917.74763-1.1906 1.2793-1.5664.54083-.37583 1.1363-.56445 1.7871-.56445.81583 0 1.4943.23818 2.0352.71484.55004.47667.85579 1.1371.91992 1.9805h.4961v-3.1484h-.75586l.0547.66016c-.385-.23833-.83433-.42245-1.3477-.55078-.50417-.1375-1.003-.20703-1.498-.20703zm38.121 0c-1.0267 0-1.9028.25365-2.627.75781-.715.495-1.2564 1.1265-1.623 1.8965-.3575.77-.53516 1.5631-.53516 2.3789 0 .8525.17315 1.6636.52148 2.4336.34834.76083.88972 1.3853 1.623 1.8711.73333.48583 1.65.72852 2.75.72852 1.0267 0 1.8963-.24914 2.6113-.74414.72417-.50417 1.2656-1.1402 1.623-1.9102.36666-.77917.55078-1.5722.55078-2.3789 0-.81583-.18412-1.6089-.55078-2.3789-.36667-.77-.92157-1.4015-1.6641-1.8965-.73333-.50417-1.6255-.75781-2.6797-.75781zm-103.98.194c-.48583 0-1.2049.009-2.1582.02734v.60547l.99023-.05469c-.0275.275-.04297.60328-.04297.98828v5.9414c0 .4675-.009.79773-.02734.99023-.01833.18333-.09492.34297-.23242.48047s-.36667.21154-.6875.22070v.45312h3.0938v-.60547l-.99024.05469c.0275-.23833.04101-.6001.04101-1.0859v-2.668c.11917.0092.30328.01563.55078.01563.17417-.000001.30227-.0065.38477-.01563.12833.11917.24742.25823.35742.41406s.23810.35602.38476.60352l.17774.28906.92188 1.4727c.22917.3575.42680.64974.59180.87891.17417.22.38531.43565.63281.64648h1.7324v-.45312c-.275 0-.50867-.05151-.70117-.15234-.18333-.11-.34492-.24711-.48242-.41211-.12833-.17417-.29247-.42135-.49414-.74219l-.93555-1.4707c-.22-.34833-.39315-.60648-.52148-.77148s-.27190-.30662-.42773-.42578c.95333-.1925 1.6228-.54076 2.0078-1.0449.385-.50417.57362-1.0726.56445-1.7051 0-.78833-.30320-1.3883-.90820-1.8008-.59583-.42167-1.5395-.64182-2.832-.66016-.22-.0092-.55023-.01367-.99023-.01367zm38.828 0c-.76084 0-1.7831.009-3.0664.02734v.60547l.99023-.05469c-.0275.275-.043.60328-.043.98828v5.9414c0 .4675-.009.79773-.0273.99023-.0183.18333-.0949.34297-.23242.48047-.1375.1375-.36667.21154-.6875.22070v.45312h3.3672v-.61914l-1.2637.06836c.0275-.23833.041-.60010.041-1.0859v-1.9941c.11917.0092.28331.01367.49414.01367 1.1275 0 2.0306-.15964 2.709-.48047.6875-.32083 1.1684-.72315 1.4434-1.209.28416-.48583.42773-.99568.42773-1.5273 0-.92583-.35276-1.6268-1.0586-2.1035-.69667-.47667-1.7279-.71484-3.0938-.71484zm15.877 0c-.48583 0-1.2068.009-2.1602.02734v.60547l.99024-.05469c-.0275.275-.041.60328-.041.98828v5.9414c0 .4675-.009.79773-.0273.99023-.0183.18333-.0969.34297-.23438.48047-.1375.1375-.36666.21154-.6875.22070v.45312h3.0938v-.60547l-.98828.05469c.0275-.23833.041-.60010.041-1.0859v-2.668c.11916.0092.30133.01563.54883.01563.17416-.0000010.30226-.0065.38476-.01563.12834.11917.24742.25823.35742.41406s.24006.35602.38672.60352l.17774.28906.92187 1.4727c.22917.3575.4268.64974.5918.87891.17417.22.38336.43565.63086.64648h1.7324v-.45312c-.275 0-.50867-.05151-.70117-.15234-.18334-.11-.34297-.24711-.48047-.41211-.12833-.17417-.29247-.42135-.49414-.74219l-.93555-1.4707c-.22-.34833-.3951-.60648-.52344-.77148-.12833-.165-.26994-.30662-.42578-.42578.95334-.1925 1.6228-.54076 2.0078-1.0449.38503-.50417.57365-1.0726.56445-1.7051 0-.78833-.3032-1.3883-.9082-1.8008-.59584-.42167-1.5395-.64182-2.832-.66016-.22-.0092-.55023-.01367-.99023-.01367zm38.135 0c-.48584 0-1.2068.009-2.1602.02734v.60547l.99023-.05469c-.0275.275-.041.60328-.041.98828v5.9414c0 .4675-.009.79773-.0274.99023-.0183.18333-.0969.34297-.23437.48047-.1375.1375-.36667.21154-.6875.22070v.45312h3.0938v-.60547l-.98828.05469c.0275-.23833.041-.60010.041-1.0859v-2.668c.11917.0092.30133.01563.54883.01563.17417-.0000010.30227-.0065.38477-.01563.12833.11917.24742.25823.35742.41406s.24005.35602.38672.60352l.17773.28906.92188 1.4727c.22916.3575.42484.64974.58984.87891.17417.22.38531.43565.63281.64648h1.7324v-.45312c-.275 0-.50868-.05151-.70118-.15234-.18333-.11-.34297-.24711-.48047-.41211-.12833-.17417-.29442-.42135-.49609-.74219l-.93359-1.4707c-.22-.34833-.39511-.60648-.52344-.77148s-.26995-.30662-.42578-.42578c.95333-.1925 1.6228-.54076 2.0078-1.0449.38503-.50417.5717-1.0726.5625-1.7051 0-.78833-.30125-1.3883-.90625-1.8008-.59583-.42167-1.5395-.64182-2.832-.66016-.22-.0092-.55023-.01367-.99023-.01367zm-112.73.027l-.08203 2.9004h.50781c0-.825.11909-1.4249.35742-1.8008.2475-.385.65628-.57617 1.2246-.57617l1.416-.01563-.01367 6.9727v.42578c0 .42167-.05857.73388-.17773.93555-0.11.20167-.36365.31174-.75781.33008v.45312h3.2324v-.60547l-1.1426.05469c.0275-.23833.04297-.60010.04297-1.0859l.01367-7.4941h1.168c.4675 0 .82477.08755 1.0723.26172.25667.165.43628.42120.53711.76953.11.33917.16857.7975.17774 1.375h.52344l-.08398-2.9004h-8.0156zm9.1797 0v.60547l.99024-.05469c-.0275.275-.04102.60328-.04102.98828v5.9414c0 .4675-.009.79773-.02734.99023-.01833.18333-.09687.34297-.23438.48047-.1375.1375-.36667.21154-.6875.22070v.45312h7.0957l.08203-2.6816h-.46680c0 .77917-.17060 1.3296-.50977 1.6504-.33917.31167-.82904.47130-1.4707.48047l-2.627.04297c.0275-.23834.04102-.59755.04102-1.0742v-3.1484l1.0039-.04102.42773-.01367c.3025 0 .53617.03154.70117.0957.17417.055.30227.17409.38476.35742.0825.17417.12305.43232.12305.77148h.45312v-2.8887h-.60352l.0957 1.1836-2.5859-.01367v-2.2012c0-.44.01997-.76122.05664-.96289.03667-.21083.12677-.37047.27344-.48047.14667-.11917.38484-.18419.71484-.19336l1.1836-.02734c.58667-.01833 1.0405.11172 1.3613.38672.33 0.275.49414.78740.49414 1.5391h.45508l-.07031-2.4062h-6.6133zm17.188 0v.60547l.99024-.05469c-.0275.275-.04102.60328-.04102.98828v5.9414c0 .4675-.009.79773-.02734.99023-.01833.18333-.09687.34297-.23438.48047-.1375.1375-.36667.21154-.6875.22070v.45312h7.0957l.08203-2.6816h-.46680c0 .77917-.17060 1.3296-.50977 1.6504-.33917.31167-.82904.47130-1.4707.48047l-2.627.04297c.0275-.23834.04102-.59755.04102-1.0742v-3.1484l1.0039-.04102.42773-.01367c.3025 0 .53617.03154.70117.0957.17417.055.30227.17409.38476.35742.0825.17417.12305.43232.12305.77148h.45312v-2.8887h-.60352l.0957 1.1836-2.5859-.01367v-2.2012c0-.44.01997-.76122.05664-.96289.03667-.21083.12677-.37047.27344-.48047.14667-.11917.38484-.18419.71484-.19336l1.1836-.02734c.58667-.01833 1.0405.11172 1.3613.38672.33 0.275.49414.78740.49414 1.5391h.45508l-.07031-2.4062h-6.6133zm8.623 0-.08203 2.8457h.46680c0-.77.13260-1.3384.39844-1.7051.26583-.36667.67461-.55784 1.2246-.57617l3.5059-.05664c-.23833.28417-.53252.69745-.88086 1.2383-1.54 2.4658-3.1107 4.8026-4.7148 7.0117l-.16602.23438v.63281h7.0547l.082-2.8184h-.46679c-.00002.7425-.19764 1.3019-.5918 1.6777-0.385.37583-.89935 0.567-1.541.57617l-3.3398.05664c.28417-.25667.59443-.63841.93359-1.1426l4.9375-7.4941v-.48047h-6.8203zm7.457 0v.60547l.85352-.02734c.0733.385.32052.90190.74218 1.5527l2.3926 3.7812-.0137 1.5684v.42578c0 .42167-.0605.73388-.17969.93555-.11.20167-.36169.31174-.75586.33008v.45312h3.2324v-.60547l-1.1426.05469c.0275-.23833.041-.60010.041-1.0859-.009-.20167-.0137-.55443-.0137-1.0586.009-.50417.0181-.98052.0273-1.4297l1.7324-3.2734c.33916-.62333.65138-1.0662.93554-1.332.29334-.26583.65511-.41391 1.0859-.44141v-.45312h-2.8047v.60547l1.0859-.04102c-.17417.1925-.39432.54076-.66016 1.0449l-.2871.53516c-.66 1.2375-1.1518 2.1722-1.4727 2.8047h-.0273c-.43084-.59583-.93873-1.3689-1.5254-2.3223l-.42773-.67383c-.22917-.3575-.34375-.65620-.34375-.89453 0-.40333.35922-.60547 1.0742-.60547v-.45312h-3.5488zm21.438 0v.60547l.99024-.05469c-.0275.275-.041.60328-.041.98828v5.9414c0 .4675-.009.79773-.0273.99023-.0183.18333-.0969.34297-.23438.48047-.1375.1375-.36667.21154-.6875.22070v.45312h7.0957l.082-2.6816h-.46875c0 .77917-.16865 1.3296-.50782 1.6504-.33916.31167-.82903.47130-1.4707.48047l-2.627.04297c.0275-.23834.041-.59755.041-1.0742v-3.1484l1.0039-.04102.42578-.01367c.3025 0 .53617.03154.70117.0957.17417.055.30227.17409.38477.35742.0825.17417.125.43232.125.77148h.45312v-2.8887h-.60547l.0977 1.1836-2.5859-.01367v-2.2012c0-.44.018-.76122.0547-.96289.0367-.21083.12872-.37047.27539-.48047.14667-.11917.38484-.18419.71484-.19336l1.1836-.02734c.58666-.01833 1.0405.11172 1.3613.38672.33 0.275.49414.78740.49414 1.5391h.45312l-.0684-2.4062h-6.6133zm27.689 0v.60547l.91993-.05469-.0137 7.5352c0 .30250-.0586.55870-.17773.76953-.11917.21083-.36185.31641-.72852.31641v.45312h2.5156v-.60547l-.99023.05469c.0183-.29333.0273-.74716.0273-1.3613l-.041-5.8848h.0137l5.9668 8.0176h.66016l.0273-7.7012v-.48047c0-.275.018-.49516.0547-.66016s.11971-.29310.24805-.38476c.1375-.10083.34414-.15685.61914-.16602v-.45312h-2.5293v.60547l.99023-.05469c-.0275.275-.043.60328-.043.98828l-.0137 6.2988h-.0137l-5.8574-7.8379h-1.6348zm10.445 0v.60547l.99023-.05469c-.0275.275-.041.60328-.041.98828v5.9414c0 .4675-.009.79773-.0274.99023-.0183.18333-.0969.34297-.23437.48047-.1375.1375-.36667.21154-.6875.22070v.45312h7.0957l.082-2.6816h-.46875c0 .77917-.16864 1.3296-.50781 1.6504-.33917.31167-.82904.47130-1.4707.48047l-2.627.04297c.0275-.23834.041-.59755.041-1.0742v-3.1484l1.0039-.04102.42579-.01367c.3025 0 .53617.03154.70117.0957.17416.055.30422.17409.38672.35742.0825.17417.12304.43232.12304.77148h.45313v-2.8887h-.60547l.0977 1.1836-2.5859-.01367v-2.2012c0-.44.018-.76122.0547-.96289.0367-.21083.12872-.37047.27539-.48047.14666-.11917.38484-.18419.71484-.19336l1.1836-.02734c.58667-.01833 1.0405.11172 1.3613.38672.33 0.275.49414.78740.49414 1.5391h.45313l-.0684-2.4062h-6.6133zm27.145 0v.60547l.77148-.02734c.0642.4675.25985 1.09.58985 1.8691l3.1211 7.3145h.38672l2.9004-7.9609c.17417-.495.36729-.83875.57812-1.0312.22-.1925.53026-.29807.9336-.31641v-.45312h-2.791v.60547l1.0586-.05469c-.0917.18333-.22427.52258-.39844 1.0176l-.31641.87891-1.209 3.3965-.17969.49414-.50781 1.4727h-.0274c-.14666-.39417-.40031-1.0006-.75781-1.8164l-.35742-.83789c-.165-.385-.34266-.81180-.53516-1.2793-.18333-.4675-.32044-.81576-.41211-1.0449l-.35742-.87891c-.12833-.31167-.19336-.57432-.19336-.78516 0-.22.0695-.38414.20703-.49414.14667-.11917.37133-.18870.67383-.20703l.0137-.01367v-.45312h-3.1914zm9.7812 0v.60547l.99023-.05469c-.0275.275-.041.60328-.041.98828v5.9414c0 .4675-.009.79773-.0274.99023-.0183.18333-.0969.34297-.23437.48047-.1375.1375-.36667.21154-.6875.22070v.45312h7.0957l.082-2.6816h-.46679c0 .77917-.1706 1.3296-.50977 1.6504-.33917.31167-.82904.47130-1.4707.48047l-2.627.04297c.0275-.23834.041-.59755.041-1.0742v-3.1484l1.0039-.04102.42773-.01367c.3025 0 .53617.03154.70117.0957.17417.055.30227.17409.38477.35742.0825.17417.12304.43232.12304.77148h.45313v-2.8887h-.60352l.0957 1.1836-2.5859-.01367v-2.2012c0-.44.02-.76122.0566-.96289.0367-.21083.12677-.37047.27344-.48047.14666-.11917.38484-.18419.71484-.19336l1.1836-.02734c.58667-.01833 1.0405.11172 1.3613.38672.33 0.275.49414.78740.49414 1.5391h.45508l-.0703-2.4062h-6.6133zm-15.119.33008c.72416 0 1.3576.23367 1.8984.70117.54082.45833.95411 1.0538 1.2383 1.7871.28416.72417.42578 1.4767.42578 2.2559 0 .70583-.13261 1.3798-.39844 2.0215-.25667.64167-.64292 1.1676-1.1562 1.5801-.50417.40333-1.1131.60547-1.8281.60547-.76999 0-1.426-.23818-1.9668-.71484-.54084-.48583-.94315-1.0903-1.209-1.8145-.26583-.73333-.39843-1.4633-.39843-2.1875 0-.70583.1281-1.3843.38476-2.0352.26584-.65083.65464-1.1767 1.168-1.5801.51333-.4125 1.1268-.61914 1.8418-.61914zm-103.01.178c.83417 0 1.4521.17510 1.8555.52344.40333.34833.60547.87169.60547 1.5684 0 1.4758-.93469 2.2129-2.8047 2.2129-.12833 0-.33047-.009-.60547-.02734v-2.6406c0-.4675.009-.79323.02734-.97656.01833-.18333.09687-.33846.23438-.46680.1375-.12833.36667-.19336.6875-.19336zm37.865 0c.88917 0 1.5857.19312 2.0898.57813.50416.385.75586.98945.75586 1.8145 0 .5225-.1281.98083-.38477 1.375-.2475.385-.59125.68370-1.0312.89453-.43083.20167-.90719.30273-1.4297.30273-.36666 0-.66536-.01352-.89453-.04102v-3.2871c0-.47667.009-.80240.0273-.97656.0183-.18333.0879-.33846.20703-.46680.12833-.12833.34849-.19336.66015-.19336zm16.838 0c.83417 0 1.4541.17510 1.8574.52344.40333.34833.60546.87169.60546 1.5684 0 1.4758-.93664 2.2129-2.8066 2.2129-.12833 0-.32851-.009-.60351-.02734v-2.6406c0-.4675.009-.79323.0273-.97656s.0949-.33846.23242-.46680c.1375-.12833.36667-.19336.6875-.19336zm38.135 0c.83417 0 1.4541.17510 1.8574.52344.40333.34833.60547.87169.60547 1.5684 0 1.4758-.93664 2.2129-2.8066 2.2129-.12833 0-.32852-.009-.60352-.02734v-2.6406c0-.4675.009-.79323.0273-.97656s.0949-.33846.23242-.46680c.1375-.12833.36667-.19336.6875-.19336z"
     id="path4" />
  <path
     style="color:#000000;font-style:normal;font-variant:normal;font-weight:normal;font-stretch:normal;font-size:medium;line-height:normal;font-family:sans-serif;text-indent:0;text-align:start;text-decoration:none;text-decoration-line:none;text-decoration-style:solid;text-decoration-color:#000000;letter-spacing:normal;word-spacing:normal;text-transform:none;direction:ltr;block-progression:tb;writing-mode:lr-tb;baseline-shift:baseline;text-anchor:start;white-space:normal;clip-rule:nonzero;display:inline;overflow:visible;visibility:visible;opacity:1;isolation:auto;mix-blend-mode:normal;color-interpolation:sRGB;color-interpolation-filters:linearRGB;solid-color:#000000;solid-opacity:1;fill:#f84141;fill-opacity:1;fill-rule:nonzero;stroke:none;stroke-width:3.81744003;stroke-linecap:round;stroke-linejoin:round;stroke-miterlimit:4;stroke-dasharray:none;stroke-dashoffset:0;stroke-opacity:1;color-rendering:auto;image-rendering:auto;shape-rendering:auto;text-rendering:auto;enable-background:accumulate"
     d="M 20.082031 2.7578125 A 1.9089109 1.9089109 0 0 0 19.574219 2.8320312 C 18.82483 3.0346266 18.091398 3.285695 17.378906 3.5820312 L 17.378906 3.5800781 C 16.666373 3.8764203 15.973578 4.2184606 15.306641 4.6035156 C 14.639755 4.9885941 13.997638 5.4178571 13.384766 5.8867188 C 12.87537 6.2764237 12.392202 6.7002478 11.925781 7.1445312 C 13.13961 7.2717477 14.319281 7.7958429 15.244141 8.7207031 C 15.350454 8.8270176 15.447202 8.9380926 15.542969 9.0507812 C 15.5978 9.0075305 15.649635 8.9603845 15.705078 8.9179688 C 16.186894 8.5493688 16.692302 8.2130144 17.216797 7.9101562 C 17.741258 7.6073595 18.283633 7.3384239 18.84375 7.1054688 C 19.403875 6.8725042 19.981392 6.6748382 20.570312 6.515625 A 1.9089109 1.9089109 0 0 0 20.082031 2.7578125 z M 6.8925781 15.863281 C 6.7412326 16.488549 6.6158083 17.119364 6.5332031 17.753906 C 6.4335871 18.51914 6.3847665 19.288466 6.3847656 20.058594 C 6.3847656 20.828771 6.4335876 21.598073 6.5332031 22.363281 C 6.6328111 23.128434 6.7831709 23.890315 6.9824219 24.640625 A 1.9089109 1.9089109 0 1 0 10.671875 23.660156 C 10.51529 23.07051 10.398615 22.472583 10.320312 21.871094 C 10.242002 21.269538 10.201172 20.664223 10.201172 20.058594 C 10.201173 19.453019 10.242002 18.847674 10.320312 18.246094 C 10.329414 18.176174 10.343375 18.106923 10.353516 18.037109 C 9.2862805 17.844527 8.2660551 17.340274 7.4453125 16.519531 C 7.239361 16.31358 7.058999 16.091984 6.8925781 15.863281 z "
     id="path8" />
  <path
     style="color:#000000;font-style:normal;font-variant:normal;font-weight:normal;font-stretch:normal;font-size:medium;line-height:normal;font-family:sans-serif;text-indent:0;text-align:start;text-decoration:none;text-decoration-line:none;text-decoration-style:solid;text-decoration-color:#000000;letter-spacing:normal;word-spacing:normal;text-transform:none;direction:ltr;block-progression:tb;writing-mode:lr-tb;baseline-shift:baseline;text-anchor:start;white-space:normal;clip-rule:nonzero;display:inline;overflow:visible;visibility:visible;opacity:1;isolation:auto;mix-blend-mode:normal;color-interpolation:sRGB;color-interpolation-filters:linearRGB;solid-color:#000000;solid-opacity:1;fill:#f84141;fill-opacity:1;fill-rule:nonzero;stroke:none;stroke-width:2.12080002;stroke-linecap:round;stroke-linejoin:round;stroke-miterlimit:4;stroke-dasharray:none;stroke-dashoffset:0;stroke-opacity:1;color-rendering:auto;image-rendering:auto;shape-rendering:auto;text-rendering:auto;enable-background:accumulate"
     d="m 13.743007,15.019114 c -1.334271,1.334271 -3.463559,1.334271 -4.7978304,-10e-7 -1.3342709,-1.33427 -1.3356523,-3.464939 -0.00138,-4.79921 1.3342714,-1.3342719 3.4663214,-1.3342716 4.8005924,-1e-6 1.334271,1.334272 1.332891,3.464941 -0.0014,4.799212 z"
     id="circle10"
     inkscape:connector-curvature="0"
     sodipodi:nodetypes="cssscc" />
  <path
     style="color:#000000;font-style:normal;font-variant:normal;font-weight:normal;font-stretch:normal;font-size:medium;line-height:normal;font-family:sans-serif;text-indent:0;text-align:start;text-decoration:none;text-decoration-line:none;text-decoration-style:solid;text-decoration-color:#000000;letter-spacing:normal;word-spacing:normal;text-transform:none;direction:ltr;block-progression:tb;writing-mode:lr-tb;baseline-shift:baseline;text-anchor:start;white-space:normal;clip-rule:nonzero;display:inline;overflow:visible;visibility:visible;opacity:1;isolation:auto;mix-blend-mode:normal;color-interpolation:sRGB;color-interpolation-filters:linearRGB;solid-color:#000000;solid-opacity:1;fill:#f84141;fill-opacity:1;fill-rule:nonzero;stroke:none;stroke-width:3.81744003;stroke-linecap:round;stroke-linejoin:round;stroke-miterlimit:4;stroke-dasharray:none;stroke-dashoffset:0;stroke-opacity:1;color-rendering:auto;image-rendering:auto;shape-rendering:auto;text-rendering:auto;enable-background:accumulate"
     d="M 28.318359 2.7597656 A 1.9089109 1.9089109 0 0 0 27.886719 6.5195312 C 28.475675 6.67875 29.051356 6.8744959 29.611328 7.1074219 A 1.9089109 1.9089109 0 0 0 29.613281 7.1074219 C 30.173408 7.3403875 30.715811 7.6093297 31.240234 7.9121094 C 31.764668 8.2148902 32.270197 8.551325 32.751953 8.9199219 C 32.808043 8.9628321 32.860552 9.0108751 32.916016 9.0546875 C 33.616509 8.226152 34.563866 7.5935222 35.685547 7.2929688 C 35.966434 7.2177052 36.248468 7.1723746 36.529297 7.1425781 C 36.063795 6.6993811 35.580623 6.277577 35.072266 5.8886719 C 34.459349 5.4197226 33.817355 4.9924927 33.150391 4.6074219 C 32.483434 4.2223498 31.790613 3.8803195 31.078125 3.5839844 C 30.365617 3.2876096 29.632201 3.0365744 28.882812 2.8339844 A 1.9089109 1.9089109 0 0 0 28.318359 2.7597656 z M 41.5625 15.863281 C 40.845452 16.849968 39.803602 17.608957 38.541016 17.947266 C 38.395522 17.986251 38.249257 18.014396 38.103516 18.041016 C 38.113554 18.110188 38.127701 18.178772 38.136719 18.248047 C 38.215029 18.849613 38.253906 19.454926 38.253906 20.060547 C 38.253906 20.666114 38.215026 21.271456 38.136719 21.873047 C 38.058409 22.474609 37.941728 23.072565 37.785156 23.662109 A 1.9089109 1.9089109 0 1 0 41.474609 24.642578 C 41.673873 23.892286 41.822264 23.132389 41.921875 22.367188 C 42.021485 21.601965 42.072266 20.830684 42.072266 20.060547 C 42.072266 19.290364 42.021486 18.521055 41.921875 17.755859 C 41.839099 17.119961 41.713876 16.489463 41.5625 15.863281 z "
     id="path12" />
  <path
     style="color:#000000;font-style:normal;font-variant:normal;font-weight:normal;font-stretch:normal;font-size:medium;line-height:normal;font-family:sans-serif;text-indent:0;text-align:start;text-decoration:none;text-decoration-line:none;text-decoration-style:solid;text-decoration-color:#000000;letter-spacing:normal;word-spacing:normal;text-transform:none;direction:ltr;block-progression:tb;writing-mode:lr-tb;baseline-shift:baseline;text-anchor:start;white-space:normal;clip-rule:nonzero;display:inline;overflow:visible;visibility:visible;opacity:1;isolation:auto;mix-blend-mode:normal;color-interpolation:sRGB;color-interpolation-filters:linearRGB;solid-color:#000000;solid-opacity:1;fill:#f84141;fill-opacity:1;fill-rule:nonzero;stroke:none;stroke-width:2.12080002;stroke-linecap:round;stroke-linejoin:round;stroke-miterlimit:4;stroke-dasharray:none;stroke-dashoffset:0;stroke-opacity:1;color-rendering:auto;image-rendering:auto;shape-rendering:auto;text-rendering:auto;enable-background:accumulate"
     d="m 33.833901,13.497997 c -0.488377,-1.822649 0.578153,-3.667171 2.400801,-4.1555481 1.822649,-0.4883773 3.668552,0.5757605 4.156929,2.3984091 0.488377,1.822649 -0.577647,3.669057 -2.400296,4.157435 -1.822648,0.488377 -3.669057,-0.577647 -4.157434,-2.400296 z"
     id="circle14"
     inkscape:connector-curvature="0"
     sodipodi:nodetypes="sssss" />
  <path
     style="color:#000000;font-style:normal;font-variant:normal;font-weight:normal;font-stretch:normal;font-size:medium;line-height:normal;font-family:sans-serif;text-indent:0;text-align:start;text-decoration:none;text-decoration-line:none;text-decoration-style:solid;text-decoration-color:#000000;letter-spacing:normal;word-spacing:normal;text-transform:none;direction:ltr;block-progression:tb;writing-mode:lr-tb;baseline-shift:baseline;text-anchor:start;white-space:normal;clip-rule:nonzero;display:inline;overflow:visible;visibility:visible;opacity:1;isolation:auto;mix-blend-mode:normal;color-interpolation:sRGB;color-interpolation-filters:linearRGB;solid-color:#000000;solid-opacity:1;fill:#f84141;fill-opacity:1;fill-rule:nonzero;stroke:none;stroke-width:3.81744003;stroke-linecap:round;stroke-linejoin:round;stroke-miterlimit:4;stroke-dasharray:none;stroke-dashoffset:0;stroke-opacity:1;color-rendering:auto;image-rendering:auto;shape-rendering:auto;text-rendering:auto;enable-background:accumulate"
     d="M 35.449219 29.425781 A 1.9089109 1.9089109 0 0 0 34.126953 30.003906 C 33.694623 30.434322 33.237626 30.834559 32.755859 31.203125 C 32.274053 31.571721 31.76863 31.908123 31.244141 32.210938 C 30.719701 32.513723 30.175376 32.782653 29.615234 33.015625 C 29.549067 33.043144 29.480658 33.065267 29.414062 33.091797 C 29.781765 34.11328 29.857247 35.249218 29.556641 36.371094 C 29.481416 36.651836 29.378226 36.917839 29.263672 37.175781 C 29.881367 36.993971 30.490382 36.787087 31.082031 36.541016 C 31.794547 36.244669 32.48539 35.902644 33.152344 35.517578 C 33.819336 35.13249 34.461337 34.705202 35.074219 34.236328 C 35.687046 33.767498 36.270135 33.256725 36.820312 32.708984 A 1.9089109 1.9089109 0 0 0 35.449219 29.425781 z M 12.960938 29.429688 A 1.9089109 1.9089109 0 0 0 11.638672 32.708984 C 12.188819 33.256676 12.771884 33.76746 13.384766 34.236328 C 13.997676 34.705229 14.639705 35.132522 15.306641 35.517578 C 15.973572 35.90258 16.666425 36.244683 17.378906 36.541016 C 17.970573 36.787095 18.579579 36.99397 19.197266 37.175781 C 18.701202 36.061717 18.563928 34.780561 18.902344 33.517578 C 18.941552 33.37125 18.990859 33.230145 19.041016 33.089844 C 18.976347 33.064049 18.909968 33.042353 18.845703 33.015625 C 18.285577 32.782659 17.741325 32.513734 17.216797 32.210938 C 16.692337 31.90814 16.186879 31.571722 15.705078 31.203125 C 15.223264 30.834527 14.764374 30.43432 14.332031 30.003906 A 1.9089109 1.9089109 0 0 0 12.960938 29.429688 z "
     id="path16" />
  <path
     style="color:#000000;font-style:normal;font-variant:normal;font-weight:normal;font-stretch:normal;font-size:medium;line-height:normal;font-family:sans-serif;text-indent:0;text-align:start;text-decoration:none;text-decoration-line:none;text-decoration-style:solid;text-decoration-color:#000000;letter-spacing:normal;word-spacing:normal;text-transform:none;direction:ltr;block-progression:tb;writing-mode:lr-tb;baseline-shift:baseline;text-anchor:start;white-space:normal;clip-rule:nonzero;display:inline;overflow:visible;visibility:visible;opacity:1;isolation:auto;mix-blend-mode:normal;color-interpolation:sRGB;color-interpolation-filters:linearRGB;solid-color:#000000;solid-opacity:1;fill:#f84141;fill-opacity:1;fill-rule:nonzero;stroke:none;stroke-width:2.12080002;stroke-linecap:round;stroke-linejoin:round;stroke-miterlimit:4;stroke-dasharray:none;stroke-dashoffset:0;stroke-opacity:1;color-rendering:auto;image-rendering:auto;shape-rendering:auto;text-rendering:auto;enable-background:accumulate"
     d="m 25.107247,31.665086 c 1.822648,0.488377 2.888673,2.334786 2.400296,4.157435 -0.488378,1.822649 -2.334281,2.886786 -4.156929,2.398409 -1.822649,-0.488377 -2.887292,-2.332393 -2.398915,-4.155042 0.488377,-1.822649 2.332899,-2.889179 4.155548,-2.400802 z"
     id="circle18"
     inkscape:connector-curvature="0"
     sodipodi:nodetypes="sssss" />
</svg>
