<?xml version="1.0" encoding="UTF-8" standalone="no"?>
<svg
   xmlns:dc="http://purl.org/dc/elements/1.1/"
   xmlns:cc="http://creativecommons.org/ns#"
   xmlns:rdf="http://www.w3.org/1999/02/22-rdf-syntax-ns#"
   xmlns:svg="http://www.w3.org/2000/svg"
   xmlns="http://www.w3.org/2000/svg"
   xmlns:sodipodi="http://sodipodi.sourceforge.net/DTD/sodipodi-0.dtd"
   xmlns:inkscape="http://www.inkscape.org/namespaces/inkscape"
   focusable="false"
   height="40"
   width="210"
   version="1.1"
   preserveAspectRatio="xMidYMid meet"
   viewBox="0 0 210 40"
   id="svg2"
   inkscape:version="0.91 r13725"
   sodipodi:docname="logo-light.svg">
  <metadata
     id="metadata78">
    <rdf:RDF>
      <cc:Work
         rdf:about="">
        <dc:format>image/svg+xml</dc:format>
        <dc:type
           rdf:resource="http://purl.org/dc/dcmitype/StillImage" />
        <dc:title></dc:title>
      </cc:Work>
    </rdf:RDF>
  </metadata>
  <defs
     id="defs76" />
  <sodipodi:namedview
     pagecolor="#ffffff"
     bordercolor="#666666"
     borderopacity="1"
     objecttolerance="10"
     gridtolerance="10"
     guidetolerance="10"
     inkscape:pageopacity="0"
     inkscape:pageshadow="2"
     inkscape:window-width="1920"
     inkscape:window-height="1056"
     id="namedview74"
     showgrid="false"
     inkscape:zoom="4.8440878"
     inkscape:cx="62.593252"
     inkscape:cy="-11.528738"
     inkscape:window-x="0"
     inkscape:window-y="24"
     inkscape:window-maximized="1"
     inkscape:current-layer="svg2"
     inkscape:snap-bbox="true"
     inkscape:bbox-paths="true"
     inkscape:bbox-nodes="true"
     inkscape:snap-text-baseline="true"
     inkscape:snap-global="true"
     showguides="false"
     inkscape:snap-grids="true">
    <inkscape:grid
       type="xygrid"
       id="grid4180"
       empspacing="10"
       dotted="true" />
  </sodipodi:namedview>
  <text
     sodipodi:linespacing="125%"
     id="text8133"
     y="-23"
     x="23"
     style="font-style:normal;font-weight:normal;font-size:40px;line-height:125%;font-family:sans-serif;letter-spacing:0px;word-spacing:0px;fill:#434241;fill-opacity:1;stroke:none;stroke-width:1px;stroke-linecap:butt;stroke-linejoin:miter;stroke-opacity:1"
     xml:space="preserve"><tspan
       style="font-style:normal;font-variant:normal;font-weight:bold;font-stretch:normal;font-size:13.75px;font-family:Lora;-inkscape-font-specification:'Lora Bold';fill:#434241;fill-opacity:1"
       y="-23"
       x="23"
       id="tspan8135"
       sodipodi:role="line">NADAČNÍ FOND</tspan></text>
  <text
     xml:space="preserve"
     style="font-style:normal;font-weight:normal;font-size:40px;line-height:125%;font-family:sans-serif;letter-spacing:0px;word-spacing:0px;fill:#434241;fill-opacity:1;stroke:none;stroke-width:1px;stroke-linecap:butt;stroke-linejoin:miter;stroke-opacity:1"
     x="23"
     y="-8"
     id="text8137"
     sodipodi:linespacing="125%"><tspan
       sodipodi:role="line"
       id="tspan8139"
       x="23"
       y="-8"
       style="font-style:normal;font-variant:normal;font-weight:normal;font-stretch:normal;font-size:13.75px;font-family:Lora;-inkscape-font-specification:Lora;fill:#434241;fill-opacity:1">TEREZY PERGNEROVÉ</tspan></text>
  <text
     xml:space="preserve"
     style="font-style:normal;font-weight:normal;font-size:40px;line-height:125%;font-family:sans-serif;letter-spacing:0px;word-spacing:0px;fill:#434241;fill-opacity:1;stroke:none;stroke-width:1px;stroke-linecap:butt;stroke-linejoin:miter;stroke-opacity:1"
     x="23"
     y="-84.867447"
     id="text4174"
     sodipodi:linespacing="125%"><tspan
       sodipodi:role="line"
       id="tspan4176"
       x="23"
       y="-84.867447"
       style="font-style:normal;font-variant:normal;font-weight:bold;font-stretch:normal;font-size:13.75px;font-family:Lora;-inkscape-font-specification:'Lora Bold';fill:#434241;fill-opacity:1">Nadační fond</tspan></text>
  <text
     sodipodi:linespacing="125%"
     id="text4178"
     y="-69.867447"
     x="23"
     style="font-style:normal;font-weight:normal;font-size:40px;line-height:125%;font-family:sans-serif;letter-spacing:0px;word-spacing:0px;fill:#434241;fill-opacity:1;stroke:none;stroke-width:1px;stroke-linecap:butt;stroke-linejoin:miter;stroke-opacity:1"
     xml:space="preserve"><tspan
       style="font-style:normal;font-variant:normal;font-weight:bold;font-stretch:normal;font-size:13.75px;font-family:Lora;-inkscape-font-specification:'Lora Bold';fill:#434241;fill-opacity:1"
       y="-69.867447"
       x="23"
       id="tspan4180"
       sodipodi:role="line">Terezy Pergnerové</tspan></text>
  <circle
     style="fill:none;fill-opacity:1;stroke:#f84141;stroke-width:4;stroke-linecap:round;stroke-linejoin:round;stroke-miterlimit:4;stroke-dasharray:none;stroke-opacity:1"
     id="path4182"
     cx="-25.54937"
     cy="-85.195999"
     r="11.5"
     transform="matrix(0.96592583,0.25881905,-0.25881905,0.96592583,0,0)" />
  <circle
     style="fill:#f84141;fill-opacity:1;stroke:#ffffff;stroke-width:3.99999976;stroke-linecap:round;stroke-linejoin:round;stroke-miterlimit:4;stroke-dasharray:none;stroke-opacity:1"
     id="circle4188"
     cx="-13.772037"
     cy="-80.288536"
     r="6.0511746"
     transform="matrix(0.96592583,0.25881905,-0.25881905,0.96592583,0,0)" />
  <g
     id="g4206">
    <path
       sodipodi:nodetypes="czzzc"
       inkscape:connector-curvature="0"
       id="path4190"
       d="m 18.100671,-8.0981544 c 0,-3.9390716 -3.491642,-11.4411836 -9.3282393,-11.4411836 -5.8365976,0 -4.8787267,6.638112 -11.7814398,6.586502 -6.9027127,-0.05161 -4.5536209,-11.447224 -11.3402449,-11.331128 -6.786624,0.116095 -9.081371,11.642159 -9.081371,15.874437"
       style="fill:none;fill-rule:evenodd;stroke:#f84141;stroke-width:5;stroke-linecap:butt;stroke-linejoin:miter;stroke-miterlimit:4;stroke-dasharray:none;stroke-opacity:1" />
    <circle
       transform="matrix(0.96592583,0.25881905,-0.25881905,0.96592583,0,0)"
       r="6.0511746"
       cy="-25.363441"
       cx="-22.043343"
       id="path4184"
       style="fill:#f84141;fill-opacity:1;stroke:#ffffff;stroke-width:2;stroke-linecap:round;stroke-linejoin:round;stroke-miterlimit:4;stroke-dasharray:none;stroke-opacity:1" />
    <circle
       style="fill:#f84141;fill-opacity:1;stroke:#ffffff;stroke-width:2;stroke-linecap:round;stroke-linejoin:round;stroke-miterlimit:4;stroke-dasharray:none;stroke-opacity:1"
       id="circle4192"
       cx="1.6913729"
       cy="-26.91445"
       r="6.0511746"
       transform="matrix(0.96592583,0.25881905,-0.25881905,0.96592583,0,0)" />
  </g>
  <circle
     transform="matrix(0.96592583,0.25881905,-0.25881905,0.96592583,0,0)"
     r="6.0511746"
     cy="-97.557343"
     cx="-29.085176"
     id="circle4194"
     style="fill:#f84141;fill-opacity:1;stroke:#ffffff;stroke-width:3.99999976;stroke-linecap:round;stroke-linejoin:round;stroke-miterlimit:4;stroke-dasharray:none;stroke-opacity:1" />
  <circle
     style="fill:#f84141;fill-opacity:1;stroke:#ffffff;stroke-width:3.99999976;stroke-linecap:round;stroke-linejoin:round;stroke-miterlimit:4;stroke-dasharray:none;stroke-opacity:1"
     id="circle4196"
     cx="-36.34753"
     cy="-76.804085"
     r="6.0511746"
     transform="matrix(0.96592583,0.25881905,-0.25881905,0.96592583,0,0)" />
  <path
     style="font-style:normal;font-variant:normal;font-weight:bold;font-stretch:normal;font-size:13.75px;line-height:125%;font-family:Lora;-inkscape-font-specification:'Lora Bold';letter-spacing:0px;word-spacing:0px;fill:#434241;fill-opacity:1;stroke:none;stroke-width:1px;stroke-linecap:butt;stroke-linejoin:miter;stroke-opacity:1"
     d="M 105.64844 4.7578125 L 103.13281 5.9824219 L 100.68555 4.7871094 L 100.25977 5.4179688 L 102.93945 7.4804688 L 103.20117 7.4804688 L 106.00586 5.3769531 L 105.64844 4.7578125 z M 121.5293 5.0605469 C 121.40096 5.0605469 121.27286 5.0940365 121.14453 5.1582031 C 121.0162 5.2132031 120.90161 5.2897917 120.80078 5.390625 L 119.27344 7.0136719 L 119.76953 7.6875 L 121.72266 6.65625 C 121.87849 6.5554167 122.00659 6.4273177 122.10742 6.2714844 C 122.21742 6.1064844 122.27148 5.9403906 122.27148 5.7753906 C 122.27148 5.628724 122.22643 5.4916146 122.13477 5.3632812 C 121.96977 5.1616146 121.76763 5.0605469 121.5293 5.0605469 z M 73.476562 8.1269531 L 70.794922 15.484375 C 70.657422 15.860208 70.542839 16.147943 70.451172 16.349609 C 70.359505 16.542109 70.231406 16.708203 70.066406 16.845703 C 69.910573 16.983203 69.712943 17.050781 69.474609 17.050781 L 69.474609 18 L 72.417969 18 L 72.417969 16.900391 C 72.060469 16.900391 71.73474 16.913906 71.441406 16.941406 C 71.51474 16.785573 71.597786 16.578932 71.689453 16.322266 C 71.790286 16.065599 71.853359 15.901458 71.880859 15.828125 L 72.101562 15.181641 L 75.083984 15.126953 L 75.359375 15.882812 C 75.460208 16.13948 75.511719 16.359635 75.511719 16.542969 C 75.511719 16.909635 75.291563 17.091797 74.851562 17.091797 L 74.851562 18 L 78.550781 18 L 78.550781 16.941406 C 78.321615 16.941406 78.054453 16.954922 77.751953 16.982422 C 77.73362 16.799089 77.684062 16.574427 77.601562 16.308594 C 77.519063 16.033594 77.440521 15.804427 77.367188 15.621094 L 74.439453 8.1269531 L 73.476562 8.1269531 z M 92.732422 8.1269531 L 90.050781 15.484375 C 89.913281 15.860208 89.798698 16.147943 89.707031 16.349609 C 89.615365 16.542109 89.487266 16.708203 89.322266 16.845703 C 89.166432 16.983203 88.968802 17.050781 88.730469 17.050781 L 88.730469 18 L 91.671875 18 L 91.671875 16.900391 C 91.314375 16.900391 90.990599 16.913906 90.697266 16.941406 C 90.770599 16.785573 90.851693 16.578932 90.943359 16.322266 C 91.044193 16.065599 91.109219 15.901458 91.136719 15.828125 L 91.357422 15.181641 L 94.339844 15.126953 L 94.615234 15.882812 C 94.716068 16.13948 94.765625 16.359635 94.765625 16.542969 C 94.765625 16.909635 94.547422 17.091797 94.107422 17.091797 L 94.107422 18 L 97.804688 18 L 97.804688 16.941406 C 97.57552 16.941406 97.310313 16.954922 97.007812 16.982422 C 96.98948 16.799089 96.939922 16.574427 96.857422 16.308594 C 96.774922 16.033594 96.69638 15.804427 96.623047 15.621094 L 93.693359 8.1269531 L 92.732422 8.1269531 z M 102.88477 8.1542969 C 101.86727 8.1542969 100.9976 8.4034375 100.27344 8.8984375 C 99.549268 9.3934375 98.99888 10.038436 98.623047 10.835938 C 98.25638 11.62427 98.072266 12.453385 98.072266 13.324219 C 98.072266 14.231719 98.269896 15.062786 98.664062 15.814453 C 99.058229 16.556953 99.613129 17.143385 100.32812 17.574219 C 101.04314 18.005052 101.86323 18.220703 102.78906 18.220703 C 103.4949 18.220703 104.20943 18.06362 104.93359 17.751953 C 105.65776 17.43112 106.32273 16.853698 106.92773 16.019531 L 106.26758 15.414062 C 105.88258 15.936563 105.40622 16.349844 104.83789 16.652344 C 104.27872 16.954844 103.70581 17.105469 103.11914 17.105469 C 102.51414 17.105469 101.99529 16.936823 101.56445 16.597656 C 101.13362 16.249323 100.80339 15.768464 100.57422 15.154297 C 100.34505 14.54013 100.23047 13.839115 100.23047 13.050781 C 100.23047 12.363281 100.33603 11.720833 100.54688 11.125 C 100.75771 10.529167 101.07443 10.052812 101.49609 9.6953125 C 101.92693 9.3286458 102.45029 9.1445312 103.06445 9.1445312 C 104.35695 9.1628647 105.12555 9.9334116 105.37305 11.455078 L 106.26758 11.455078 L 106.26758 8.2519531 L 105.20898 8.2519531 L 105.26367 8.828125 L 105.25 8.828125 C 104.8925 8.6172917 104.49919 8.453151 104.06836 8.3339844 C 103.64669 8.2148177 103.25143 8.1542969 102.88477 8.1542969 z M 139.77148 8.1542969 C 138.74482 8.1542969 137.86419 8.4079427 137.13086 8.9121094 C 136.40669 9.4071094 135.86276 10.038594 135.49609 10.808594 C 135.12943 11.578594 134.94531 12.371667 134.94531 13.1875 C 134.94531 14.049167 135.10945 14.86026 135.43945 15.621094 C 135.76945 16.381927 136.29281 17.006354 137.00781 17.492188 C 137.72281 17.97802 138.63047 18.220703 139.73047 18.220703 C 140.75714 18.220703 141.6313 17.967057 142.35547 17.462891 C 143.0888 16.958724 143.63919 16.322734 144.00586 15.552734 C 144.37253 14.773568 144.55664 13.985 144.55664 13.1875 C 144.55664 12.371667 144.38154 11.578594 144.0332 10.808594 C 143.68487 10.038594 143.14995 9.4071094 142.42578 8.9121094 C 141.71078 8.4079427 140.82565 8.1542969 139.77148 8.1542969 z M 83.292969 8.3613281 L 79.291016 8.375 L 79.291016 9.4335938 L 80.322266 9.3925781 C 80.285599 9.7042448 80.267578 10.117526 80.267578 10.630859 L 80.267578 15.896484 C 80.267578 16.253984 80.231536 16.514688 80.158203 16.679688 C 80.08487 16.844688 79.983802 16.954766 79.855469 17.009766 C 79.727135 17.055599 79.538516 17.08263 79.291016 17.091797 L 79.291016 18 L 83.224609 18 C 84.434609 18 85.438828 17.757318 86.236328 17.271484 C 87.042995 16.785651 87.629427 16.172187 87.996094 15.429688 C 88.371927 14.67802 88.558594 13.898464 88.558594 13.091797 C 88.558594 12.294297 88.362917 11.53276 87.96875 10.808594 C 87.58375 10.084427 86.992812 9.4979948 86.195312 9.0488281 C 85.40698 8.5904948 84.438802 8.3613281 83.292969 8.3613281 z M 160.20703 8.3613281 L 156.20508 8.375 L 156.20508 9.4335938 L 157.23633 9.3925781 C 157.19966 9.7042448 157.18164 10.117526 157.18164 10.630859 L 157.18164 15.896484 C 157.18164 16.253984 157.1456 16.514688 157.07227 16.679688 C 156.99893 16.844688 156.89786 16.954766 156.76953 17.009766 C 156.6412 17.055599 156.45258 17.08263 156.20508 17.091797 L 156.20508 18 L 160.13867 18 C 161.34867 18 162.35289 17.757318 163.15039 17.271484 C 163.95706 16.785651 164.54349 16.172187 164.91016 15.429688 C 165.28599 14.67802 165.47266 13.898464 165.47266 13.091797 C 165.47266 12.294297 165.27698 11.53276 164.88281 10.808594 C 164.49781 10.084427 163.90687 9.4979948 163.10938 9.0488281 C 162.32104 8.5904948 161.35286 8.3613281 160.20703 8.3613281 z M 59.660156 8.375 L 59.660156 9.4335938 L 60.705078 9.3925781 C 60.668411 9.6034115 60.650391 10.016693 60.650391 10.630859 L 60.677734 15.896484 C 60.677734 16.253984 60.641693 16.514686 60.568359 16.679688 C 60.495026 16.844688 60.393958 16.954766 60.265625 17.009766 C 60.137292 17.055599 59.948672 17.08263 59.701172 17.091797 L 59.701172 18 L 62.835938 18 L 62.835938 16.941406 C 62.441771 16.941406 62.098021 16.954922 61.804688 16.982422 C 61.841354 16.670755 61.859375 16.257474 61.859375 15.744141 L 61.832031 11.482422 L 61.845703 11.482422 C 62.120703 11.876589 62.372396 12.220339 62.601562 12.513672 L 67.001953 18.136719 L 68.171875 18.136719 L 68.171875 10.478516 C 68.171875 10.121016 68.207917 9.8603125 68.28125 9.6953125 C 68.354583 9.5303125 68.455651 9.4247397 68.583984 9.3789062 C 68.712318 9.3239064 68.900938 9.2923698 69.148438 9.2832031 L 69.148438 8.375 L 66.011719 8.375 L 66.011719 9.4335938 L 67.042969 9.3925781 C 67.015469 9.6217448 67.001953 10.035026 67.001953 10.630859 L 67.001953 14.988281 L 66.988281 14.988281 C 66.731615 14.621615 66.410391 14.185807 66.025391 13.681641 L 61.818359 8.375 L 59.660156 8.375 z M 107.70508 8.375 L 107.70508 9.4335938 L 108.75 9.3925781 C 108.71333 9.6034115 108.69531 10.016693 108.69531 10.630859 L 108.72266 15.896484 C 108.72266 16.253984 108.68466 16.514686 108.61133 16.679688 C 108.53799 16.844687 108.43693 16.954766 108.30859 17.009766 C 108.18026 17.055599 107.99359 17.08263 107.74609 17.091797 L 107.74609 18 L 110.88086 18 L 110.88086 16.941406 C 110.48669 16.941406 110.14294 16.954922 109.84961 16.982422 C 109.88628 16.670755 109.9043 16.257474 109.9043 15.744141 L 109.87695 11.482422 L 109.89062 11.482422 C 110.16563 11.876589 110.41732 12.220339 110.64648 12.513672 L 115.04688 18.136719 L 116.21484 18.136719 L 116.21484 10.478516 C 116.21484 10.121016 116.25284 9.8603125 116.32617 9.6953125 C 116.39951 9.5303125 116.50057 9.4247397 116.62891 9.3789062 C 116.75724 9.3239064 116.94391 9.2923698 117.19141 9.2832031 L 117.19141 8.375 L 114.05664 8.375 L 114.05664 9.4335938 L 115.08789 9.3925781 C 115.06042 9.6217448 115.04688 10.035026 115.04688 10.630859 L 115.04688 14.988281 L 115.0332 14.988281 C 114.77654 14.621615 114.45531 14.185807 114.07031 13.681641 L 109.86328 8.375 L 107.70508 8.375 z M 118.36719 8.375 L 118.36719 9.4335938 L 119.39844 9.3925781 C 119.36177 9.7042448 119.34375 10.117526 119.34375 10.630859 L 119.34375 15.896484 C 119.34375 16.253984 119.30576 16.514686 119.23242 16.679688 C 119.15909 16.844687 119.05802 16.954766 118.92969 17.009766 C 118.80135 17.055599 118.61469 17.08263 118.36719 17.091797 L 118.36719 18 L 122.3125 18 L 122.3125 16.941406 C 121.91833 16.941406 121.57458 16.954922 121.28125 16.982422 C 121.31792 16.670755 121.33594 16.257474 121.33594 15.744141 L 121.33594 10.478516 C 121.33594 10.121016 121.37393 9.8603125 121.44727 9.6953125 C 121.5206 9.5303125 121.62167 9.4247397 121.75 9.3789062 C 121.87833 9.3239064 122.065 9.2923698 122.3125 9.2832031 L 122.3125 8.375 L 118.36719 8.375 z M 127.30859 8.375 L 127.30859 9.4335938 L 128.33984 9.3925781 C 128.30318 9.7042448 128.28516 10.117526 128.28516 10.630859 L 128.28516 15.896484 C 128.28516 16.253984 128.24911 16.514688 128.17578 16.679688 C 128.10245 16.844687 128.00138 16.954766 127.87305 17.009766 C 127.74515 17.055444 127.55681 17.082537 127.31055 17.091797 L 127.31055 18 L 131.44922 18 L 131.44922 16.941406 C 130.92672 16.941406 130.51794 16.954922 130.22461 16.982422 C 130.26128 16.670755 130.2793 16.257474 130.2793 15.744141 L 130.2793 13.820312 L 130.44531 13.820312 C 130.73865 13.811147 130.97682 13.829167 131.16016 13.875 C 131.35266 13.920833 131.50328 14.035417 131.61328 14.21875 C 131.73245 14.392917 131.79297 14.66263 131.79297 15.029297 L 132.69922 15.029297 L 132.69922 11.689453 L 131.64062 11.689453 C 131.66816 12.35862 131.68618 12.751927 131.69531 12.871094 L 130.2793 12.871094 L 130.2793 10.478516 C 130.2793 10.139349 130.31087 9.883151 130.375 9.7089844 C 130.44833 9.5348177 130.5494 9.4247397 130.67773 9.3789062 C 130.80607 9.3239063 130.98117 9.2923698 131.20117 9.2832031 L 131.69531 9.2695312 C 132.15365 9.2511979 132.5444 9.3747917 132.86523 9.640625 C 133.19523 9.8972917 133.35938 10.364635 133.35938 11.042969 L 134.26758 11.042969 L 134.18359 8.375 L 127.30859 8.375 z M 145.54297 8.375 L 145.54297 9.4335938 L 146.58789 9.3925781 C 146.55122 9.6034115 146.5332 10.016693 146.5332 10.630859 L 146.56055 15.896484 C 146.56055 16.253984 146.52451 16.514688 146.45117 16.679688 C 146.37784 16.844688 146.27677 16.954766 146.14844 17.009766 C 146.0201 17.055599 145.83344 17.08263 145.58594 17.091797 L 145.58594 18 L 148.7207 18 L 148.7207 16.941406 C 148.32654 16.941406 147.98279 16.954922 147.68945 16.982422 C 147.72612 16.670755 147.74414 16.257474 147.74414 15.744141 L 147.7168 11.482422 L 147.73047 11.482422 C 148.00547 11.876589 148.25716 12.220339 148.48633 12.513672 L 152.88672 18.136719 L 154.05469 18.136719 L 154.05469 10.478516 C 154.05469 10.121016 154.09268 9.8603125 154.16602 9.6953125 C 154.23935 9.5303125 154.33846 9.4247397 154.4668 9.3789062 C 154.59513 9.3239064 154.78375 9.2923698 155.03125 9.2832031 L 155.03125 8.375 L 151.89648 8.375 L 151.89648 9.4335938 L 152.92773 9.3925781 C 152.90027 9.6217448 152.88672 10.035026 152.88672 10.630859 L 152.88672 14.988281 L 152.87305 14.988281 C 152.61638 14.621615 152.29516 14.185807 151.91016 13.681641 L 147.70312 8.375 L 145.54297 8.375 z M 139.66211 9.1582031 C 140.56044 9.1582031 141.23893 9.5444532 141.69727 10.314453 C 142.1556 11.084453 142.38477 12.120208 142.38477 13.421875 C 142.38477 14.045208 142.30172 14.645156 142.13672 15.222656 C 141.97172 15.800156 141.70005 16.27651 141.32422 16.652344 C 140.94839 17.028177 140.46302 17.216797 139.86719 17.216797 C 139.22552 17.216797 138.6951 17.001146 138.27344 16.570312 C 137.86094 16.130312 137.56224 15.588932 137.37891 14.947266 C 137.19557 14.305599 137.10352 13.665103 137.10352 13.023438 C 137.10352 12.390937 137.18656 11.780026 137.35156 11.193359 C 137.51656 10.606693 137.79078 10.121328 138.17578 9.7363281 C 138.56078 9.3513281 139.05711 9.1582031 139.66211 9.1582031 z M 83.128906 9.2832031 C 84.16474 9.2832031 84.966823 9.6179431 85.535156 10.287109 C 86.10349 10.956276 86.386719 11.987526 86.386719 13.380859 C 86.386719 14.022526 86.281147 14.617969 86.070312 15.167969 C 85.868646 15.708802 85.551927 16.149115 85.121094 16.488281 C 84.69026 16.827448 84.155339 16.996094 83.513672 16.996094 C 83.330339 16.996094 83.17776 16.991589 83.058594 16.982422 L 82.46875 16.96875 C 82.340417 16.96875 82.252865 16.973255 82.207031 16.982422 C 82.243698 16.670755 82.261719 16.257474 82.261719 15.744141 L 82.261719 10.451172 C 82.261719 9.9836718 82.326745 9.6714583 82.455078 9.515625 C 82.592578 9.3597917 82.81724 9.2832031 83.128906 9.2832031 z M 160.04297 9.2832031 C 161.0788 9.2832031 161.88089 9.6179431 162.44922 10.287109 C 163.01755 10.956276 163.30078 11.987526 163.30078 13.380859 C 163.30078 14.022526 163.19521 14.617969 162.98438 15.167969 C 162.78271 15.708802 162.46599 16.149115 162.03516 16.488281 C 161.60432 16.827448 161.0694 16.996094 160.42773 16.996094 C 160.2444 16.996094 160.09182 16.991589 159.97266 16.982422 L 159.38281 16.96875 C 159.25445 16.96875 159.16689 16.973255 159.12109 16.982422 C 159.15776 16.670755 159.17578 16.257474 159.17578 15.744141 L 159.17578 10.451172 C 159.17578 9.9836718 159.24081 9.6714583 159.36914 9.515625 C 159.50664 9.3597917 159.7313 9.2832031 160.04297 9.2832031 z M 73.572266 10.546875 L 73.585938 10.546875 C 73.668436 11.051042 73.843542 11.679974 74.109375 12.431641 L 74.740234 14.150391 L 72.445312 14.150391 L 73.064453 12.363281 C 73.256953 11.813281 73.425599 11.206875 73.572266 10.546875 z M 92.828125 10.546875 L 92.841797 10.546875 C 92.924297 11.051042 93.097448 11.679974 93.363281 12.431641 L 93.996094 14.150391 L 91.701172 14.150391 L 92.318359 12.363281 C 92.510859 11.813281 92.681458 11.206875 92.828125 10.546875 z M 203.54102 20.253906 C 203.37602 20.253906 203.19836 20.336953 203.00586 20.501953 L 201.27344 22.150391 L 201.57617 22.550781 L 203.56836 21.326172 C 203.86169 21.142839 204.00977 20.940703 204.00977 20.720703 C 204.00977 20.601536 203.98078 20.504974 203.92578 20.431641 C 203.89831 20.394974 203.84876 20.358932 203.77539 20.322266 C 203.71119 20.276432 203.63265 20.253906 203.54102 20.253906 z M 145.13281 23.154297 C 144.11531 23.154297 143.2437 23.407943 142.51953 23.912109 C 141.79536 24.407109 141.24948 25.052109 140.88281 25.849609 C 140.52531 26.647109 140.34766 27.496198 140.34766 28.394531 C 140.34766 29.384531 140.54333 30.240677 140.9375 30.964844 C 141.33167 31.68901 141.88206 32.248411 142.58789 32.642578 C 143.29372 33.027578 144.10482 33.220703 145.02148 33.220703 C 145.33315 33.220703 145.6769 33.187214 146.05273 33.123047 C 146.42857 33.05888 146.7543 32.973281 147.0293 32.863281 C 147.6343 32.624948 148.12867 32.505859 148.51367 32.505859 L 148.88477 32.505859 L 148.88477 30.400391 C 148.88477 29.978724 148.94078 29.603437 149.05078 29.273438 C 149.16078 28.934271 149.435 28.765625 149.875 28.765625 L 149.875 28.310547 L 146.76758 28.310547 L 146.76758 28.916016 L 147.73047 28.861328 L 147.73047 31.873047 C 147.3913 32.102214 147.01151 32.275365 146.58984 32.394531 C 146.17734 32.504531 145.77307 32.560547 145.37891 32.560547 C 144.66391 32.560547 144.02792 32.367422 143.46875 31.982422 C 142.90958 31.597422 142.47378 31.065052 142.16211 30.386719 C 141.85044 29.708385 141.69531 28.939792 141.69531 28.078125 C 141.69531 27.243958 141.85044 26.495937 142.16211 25.835938 C 142.48294 25.166771 142.90974 24.645365 143.44141 24.269531 C 143.98224 23.893698 144.57768 23.705078 145.22852 23.705078 C 146.04435 23.705078 146.72284 23.943255 147.26367 24.419922 C 147.81371 24.896589 148.11946 25.557057 148.18359 26.400391 L 148.67969 26.400391 L 148.67969 23.251953 L 147.92383 23.251953 L 147.97852 23.912109 C 147.59352 23.673776 147.14419 23.489661 146.63086 23.361328 C 146.12669 23.223828 145.62781 23.154297 145.13281 23.154297 z M 183.25391 23.154297 C 182.22724 23.154297 181.35112 23.407943 180.62695 23.912109 C 179.91195 24.407109 179.37057 25.038594 179.00391 25.808594 C 178.64641 26.578594 178.46875 27.371667 178.46875 28.1875 C 178.46875 29.04 178.6419 29.851094 178.99023 30.621094 C 179.33857 31.381927 179.87995 32.006354 180.61328 32.492188 C 181.34661 32.97802 182.26328 33.220703 183.36328 33.220703 C 184.38995 33.220703 185.25961 32.971562 185.97461 32.476562 C 186.69878 31.972396 187.24016 31.336406 187.59766 30.566406 C 187.96432 29.78724 188.14844 28.994167 188.14844 28.1875 C 188.14844 27.371667 187.96432 26.578594 187.59766 25.808594 C 187.23099 25.038594 186.67609 24.407109 185.93359 23.912109 C 185.20026 23.407943 184.30807 23.154297 183.25391 23.154297 z M 79.263672 23.347656 C 78.777839 23.347656 78.058802 23.356667 77.105469 23.375 L 77.105469 23.980469 L 78.095703 23.925781 C 78.068203 24.200781 78.052734 24.529064 78.052734 24.914062 L 78.052734 30.855469 C 78.052734 31.322969 78.043724 31.653203 78.025391 31.845703 C 78.007057 32.029036 77.930469 32.188672 77.792969 32.326172 C 77.655469 32.463672 77.426302 32.537708 77.105469 32.546875 L 77.105469 33 L 80.199219 33 L 80.199219 32.394531 L 79.208984 32.449219 C 79.236484 32.210885 79.25 31.849115 79.25 31.363281 L 79.25 28.695312 C 79.369167 28.704479 79.553281 28.710938 79.800781 28.710938 C 79.974948 28.710937 80.103047 28.704479 80.185547 28.695312 C 80.31388 28.814479 80.432969 28.953542 80.542969 29.109375 C 80.652969 29.265208 80.781068 29.465391 80.927734 29.712891 L 81.105469 30.001953 L 82.027344 31.474609 C 82.25651 31.832109 82.454141 32.124349 82.619141 32.353516 C 82.793307 32.573516 83.004453 32.789167 83.251953 33 L 84.984375 33 L 84.984375 32.546875 C 84.709375 32.546875 84.475703 32.495365 84.283203 32.394531 C 84.09987 32.284531 83.938281 32.147422 83.800781 31.982422 C 83.672448 31.808255 83.508307 31.561068 83.306641 31.240234 L 82.371094 29.769531 C 82.151094 29.421198 81.977943 29.163047 81.849609 28.998047 C 81.721276 28.833047 81.577708 28.691432 81.421875 28.572266 C 82.375208 28.379766 83.044686 28.03151 83.429688 27.527344 C 83.814688 27.023177 84.003307 26.454766 83.994141 25.822266 C 83.994141 25.033932 83.690937 24.433984 83.085938 24.021484 C 82.490104 23.599818 81.546406 23.379661 80.253906 23.361328 C 80.033906 23.352161 79.703672 23.347656 79.263672 23.347656 z M 118.0918 23.347656 C 117.33096 23.347656 116.30872 23.356667 115.02539 23.375 L 115.02539 23.980469 L 116.01562 23.925781 C 115.98816 24.200781 115.97266 24.529064 115.97266 24.914062 L 115.97266 30.855469 C 115.97266 31.322969 115.96365 31.653203 115.94531 31.845703 C 115.92698 32.029036 115.85039 32.188672 115.71289 32.326172 C 115.57539 32.463672 115.34622 32.537708 115.02539 32.546875 L 115.02539 33 L 118.39258 33 L 118.39258 32.380859 L 117.12891 32.449219 C 117.15637 32.210885 117.16992 31.849115 117.16992 31.363281 L 117.16992 29.369141 C 117.28909 29.378307 117.45323 29.382812 117.66406 29.382812 C 118.79156 29.382812 119.69471 29.223177 120.37305 28.902344 C 121.06055 28.58151 121.54141 28.179193 121.81641 27.693359 C 122.10057 27.207526 122.24414 26.697682 122.24414 26.166016 C 122.24414 25.240182 121.89138 24.539167 121.18555 24.0625 C 120.48888 23.585833 119.45763 23.347656 118.0918 23.347656 z M 133.96875 23.347656 C 133.48292 23.347656 132.76193 23.356667 131.80859 23.375 L 131.80859 23.980469 L 132.79883 23.925781 C 132.77129 24.200781 132.75781 24.529062 132.75781 24.914062 L 132.75781 30.855469 C 132.75781 31.322969 132.7488 31.653203 132.73047 31.845703 C 132.71214 32.029036 132.63359 32.188672 132.49609 32.326172 C 132.35859 32.463672 132.12943 32.537708 131.80859 32.546875 L 131.80859 33 L 134.90234 33 L 134.90234 32.394531 L 133.91406 32.449219 C 133.94153 32.210885 133.95508 31.849115 133.95508 31.363281 L 133.95508 28.695312 C 134.07424 28.704479 134.25641 28.710938 134.50391 28.710938 C 134.67807 28.710937 134.80617 28.704479 134.88867 28.695312 C 135.01701 28.814479 135.13609 28.953542 135.24609 29.109375 C 135.35609 29.265208 135.48615 29.465391 135.63281 29.712891 L 135.81055 30.001953 L 136.73242 31.474609 C 136.96159 31.832109 137.15922 32.124349 137.32422 32.353516 C 137.49839 32.573516 137.70758 32.789167 137.95508 33 L 139.6875 33 L 139.6875 32.546875 C 139.4125 32.546875 139.17883 32.495365 138.98633 32.394531 C 138.80299 32.284531 138.64336 32.147422 138.50586 31.982422 C 138.37753 31.808255 138.21339 31.561068 138.01172 31.240234 L 137.07617 29.769531 C 136.85617 29.421198 136.68107 29.163047 136.55273 28.998047 C 136.4244 28.833047 136.28279 28.691432 136.12695 28.572266 C 137.08029 28.379766 137.74977 28.03151 138.13477 27.527344 C 138.5198 27.023177 138.70842 26.454766 138.69922 25.822266 C 138.69922 25.033932 138.39602 24.433984 137.79102 24.021484 C 137.19518 23.599818 136.25148 23.379661 134.95898 23.361328 C 134.73898 23.352161 134.40875 23.347656 133.96875 23.347656 z M 172.10352 23.347656 C 171.61768 23.347656 170.89669 23.356667 169.94336 23.375 L 169.94336 23.980469 L 170.93359 23.925781 C 170.90613 24.200781 170.89258 24.529064 170.89258 24.914062 L 170.89258 30.855469 C 170.89258 31.322969 170.88357 31.653203 170.86523 31.845703 C 170.8469 32.029036 170.76836 32.188672 170.63086 32.326172 C 170.49336 32.463672 170.26419 32.537708 169.94336 32.546875 L 169.94336 33 L 173.03711 33 L 173.03711 32.394531 L 172.04883 32.449219 C 172.07629 32.210885 172.08984 31.849115 172.08984 31.363281 L 172.08984 28.695312 C 172.20901 28.704479 172.39117 28.710938 172.63867 28.710938 C 172.81284 28.710937 172.94094 28.704479 173.02344 28.695312 C 173.15177 28.814479 173.27086 28.953542 173.38086 29.109375 C 173.49086 29.265208 173.62091 29.465391 173.76758 29.712891 L 173.94531 30.001953 L 174.86719 31.474609 C 175.09635 31.832109 175.29203 32.124349 175.45703 32.353516 C 175.6312 32.573516 175.84234 32.789167 176.08984 33 L 177.82227 33 L 177.82227 32.546875 C 177.54727 32.546875 177.31359 32.495365 177.12109 32.394531 C 176.93776 32.284531 176.77812 32.147422 176.64062 31.982422 C 176.51229 31.808255 176.3462 31.561068 176.14453 31.240234 L 175.21094 29.769531 C 174.99094 29.421198 174.81583 29.163047 174.6875 28.998047 C 174.55917 28.833047 174.41755 28.691432 174.26172 28.572266 C 175.21505 28.379766 175.88453 28.03151 176.26953 27.527344 C 176.65456 27.023177 176.84123 26.454766 176.83203 25.822266 C 176.83203 25.033932 176.53078 24.433984 175.92578 24.021484 C 175.32995 23.599818 174.38625 23.379661 173.09375 23.361328 C 172.87375 23.352161 172.54352 23.347656 172.10352 23.347656 z M 59.384766 23.375 L 59.302734 26.275391 L 59.810547 26.275391 C 59.810547 25.450391 59.929635 24.850443 60.167969 24.474609 C 60.415469 24.089609 60.824245 23.898438 61.392578 23.898438 L 62.808594 23.882812 L 62.794922 30.855469 L 62.794922 31.28125 C 62.794922 31.702917 62.736354 32.01513 62.617188 32.216797 C 62.507187 32.418464 62.253542 32.528542 61.859375 32.546875 L 61.859375 33 L 65.091797 33 L 65.091797 32.394531 L 63.949219 32.449219 C 63.976719 32.210885 63.992188 31.849115 63.992188 31.363281 L 64.005859 23.869141 L 65.173828 23.869141 C 65.641328 23.869141 65.998594 23.956693 66.246094 24.130859 C 66.50276 24.295859 66.68237 24.552057 66.783203 24.900391 C 66.893203 25.239557 66.95177 25.697891 66.960938 26.275391 L 67.484375 26.275391 L 67.400391 23.375 L 59.384766 23.375 z M 68.564453 23.375 L 68.564453 23.980469 L 69.554688 23.925781 C 69.527187 24.200781 69.513672 24.529064 69.513672 24.914062 L 69.513672 30.855469 C 69.513672 31.322969 69.504661 31.653203 69.486328 31.845703 C 69.467995 32.029036 69.389453 32.188672 69.251953 32.326172 C 69.114453 32.463672 68.885286 32.537708 68.564453 32.546875 L 68.564453 33 L 75.660156 33 L 75.742188 30.318359 L 75.275391 30.318359 C 75.275391 31.097526 75.104792 31.647917 74.765625 31.96875 C 74.426458 32.280417 73.936589 32.440052 73.294922 32.449219 L 70.667969 32.492188 C 70.695469 32.253853 70.708984 31.894635 70.708984 31.417969 L 70.708984 28.269531 L 71.712891 28.228516 L 72.140625 28.214844 C 72.443125 28.214844 72.676797 28.24638 72.841797 28.310547 C 73.015964 28.365547 73.144064 28.484635 73.226562 28.667969 C 73.309062 28.842135 73.349609 29.100286 73.349609 29.439453 L 73.802734 29.439453 L 73.802734 26.550781 L 73.199219 26.550781 L 73.294922 27.734375 L 70.708984 27.720703 L 70.708984 25.519531 C 70.708984 25.079531 70.728958 24.758307 70.765625 24.556641 C 70.802292 24.345807 70.892397 24.186172 71.039062 24.076172 C 71.185729 23.957005 71.423906 23.891979 71.753906 23.882812 L 72.9375 23.855469 C 73.524167 23.837135 73.977995 23.967187 74.298828 24.242188 C 74.628828 24.517187 74.792969 25.029583 74.792969 25.78125 L 75.248047 25.78125 L 75.177734 23.375 L 68.564453 23.375 z M 85.751953 23.375 L 85.751953 23.980469 L 86.742188 23.925781 C 86.714687 24.200781 86.701172 24.529064 86.701172 24.914062 L 86.701172 30.855469 C 86.701172 31.322969 86.692161 31.653203 86.673828 31.845703 C 86.655495 32.029036 86.576953 32.188672 86.439453 32.326172 C 86.301953 32.463672 86.072786 32.537708 85.751953 32.546875 L 85.751953 33 L 92.847656 33 L 92.929688 30.318359 L 92.462891 30.318359 C 92.462891 31.097526 92.292292 31.647917 91.953125 31.96875 C 91.613958 32.280417 91.124089 32.440052 90.482422 32.449219 L 87.855469 32.492188 C 87.882969 32.253853 87.896484 31.894635 87.896484 31.417969 L 87.896484 28.269531 L 88.900391 28.228516 L 89.328125 28.214844 C 89.630625 28.214844 89.864297 28.24638 90.029297 28.310547 C 90.203464 28.365547 90.331563 28.484635 90.414062 28.667969 C 90.496562 28.842135 90.537109 29.100286 90.537109 29.439453 L 90.990234 29.439453 L 90.990234 26.550781 L 90.386719 26.550781 L 90.482422 27.734375 L 87.896484 27.720703 L 87.896484 25.519531 C 87.896484 25.079531 87.916458 24.758307 87.953125 24.556641 C 87.989792 24.345807 88.079897 24.186172 88.226562 24.076172 C 88.373229 23.957005 88.611406 23.891979 88.941406 23.882812 L 90.125 23.855469 C 90.711667 23.837135 91.165495 23.967187 91.486328 24.242188 C 91.816328 24.517187 91.980469 25.029583 91.980469 25.78125 L 92.435547 25.78125 L 92.365234 23.375 L 85.751953 23.375 z M 94.375 23.375 L 94.292969 26.220703 L 94.759766 26.220703 C 94.759766 25.450703 94.89237 24.882292 95.158203 24.515625 C 95.424036 24.148958 95.832813 23.957786 96.382812 23.939453 L 99.888672 23.882812 C 99.650339 24.16698 99.356147 24.58026 99.007812 25.121094 C 97.467814 27.586927 95.897135 29.923646 94.292969 32.132812 L 94.126953 32.367188 L 94.126953 33 L 101.18164 33 L 101.26367 30.181641 L 100.79688 30.181641 C 100.79686 30.924141 100.59924 31.483542 100.20508 31.859375 C 99.820078 32.235208 99.305729 32.42638 98.664062 32.435547 L 95.324219 32.492188 C 95.608385 32.23552 95.918646 31.853776 96.257812 31.349609 L 101.19531 23.855469 L 101.19531 23.375 L 94.375 23.375 z M 101.83203 23.375 L 101.83203 23.980469 L 102.68555 23.953125 C 102.75888 24.338125 103.00607 24.855026 103.42773 25.505859 L 105.82031 29.287109 L 105.80664 30.855469 L 105.80664 31.28125 C 105.80664 31.702917 105.74612 32.01513 105.62695 32.216797 C 105.51695 32.418464 105.26526 32.528542 104.87109 32.546875 L 104.87109 33 L 108.10352 33 L 108.10352 32.394531 L 106.96094 32.449219 C 106.9884 32.210885 107.00195 31.849115 107.00195 31.363281 C 106.99275 31.161615 106.98828 30.808853 106.98828 30.304688 C 106.99741 29.800521 107.00642 29.324167 107.01562 28.875 L 108.74805 25.601562 C 109.08721 24.978229 109.39943 24.535365 109.68359 24.269531 C 109.97693 24.003698 110.3387 23.855625 110.76953 23.828125 L 110.76953 23.375 L 107.96484 23.375 L 107.96484 23.980469 L 109.05078 23.939453 C 108.87661 24.131953 108.65646 24.480208 108.39062 24.984375 L 108.10352 25.519531 C 107.44352 26.757031 106.95169 27.691719 106.63086 28.324219 L 106.60352 28.324219 C 106.17268 27.728385 105.66479 26.955286 105.07812 26.001953 L 104.65039 25.328125 C 104.42122 24.970625 104.30664 24.671927 104.30664 24.433594 C 104.30664 24.03026 104.66586 23.828125 105.38086 23.828125 L 105.38086 23.375 L 101.83203 23.375 z M 123.26953 23.375 L 123.26953 23.980469 L 124.25977 23.925781 C 124.2323 24.200781 124.21875 24.529064 124.21875 24.914062 L 124.21875 30.855469 C 124.21875 31.322969 124.20974 31.653203 124.19141 31.845703 C 124.17307 32.029036 124.09453 32.188672 123.95703 32.326172 C 123.81953 32.463672 123.59036 32.537708 123.26953 32.546875 L 123.26953 33 L 130.36523 33 L 130.44727 30.318359 L 129.97852 30.318359 C 129.97852 31.097526 129.80987 31.647917 129.4707 31.96875 C 129.13154 32.280417 128.64167 32.440052 128 32.449219 L 125.37305 32.492188 C 125.40051 32.253853 125.41406 31.894635 125.41406 31.417969 L 125.41406 28.269531 L 126.41797 28.228516 L 126.84375 28.214844 C 127.14625 28.214844 127.37992 28.24638 127.54492 28.310547 C 127.71909 28.365547 127.84719 28.484635 127.92969 28.667969 C 128.01219 28.842135 128.05469 29.100286 128.05469 29.439453 L 128.50781 29.439453 L 128.50781 26.550781 L 127.90234 26.550781 L 128 27.734375 L 125.41406 27.720703 L 125.41406 25.519531 C 125.41406 25.079531 125.43208 24.758307 125.46875 24.556641 C 125.50542 24.345807 125.59747 24.186172 125.74414 24.076172 C 125.89081 23.957005 126.12898 23.891979 126.45898 23.882812 L 127.64258 23.855469 C 128.22924 23.837135 128.68307 23.967187 129.00391 24.242188 C 129.33391 24.517187 129.49805 25.029583 129.49805 25.78125 L 129.95117 25.78125 L 129.88281 23.375 L 123.26953 23.375 z M 150.95898 23.375 L 150.95898 23.980469 L 151.87891 23.925781 L 151.86523 31.460938 C 151.86523 31.763437 151.80667 32.019635 151.6875 32.230469 C 151.56833 32.441302 151.32565 32.546875 150.95898 32.546875 L 150.95898 33 L 153.47461 33 L 153.47461 32.394531 L 152.48438 32.449219 C 152.50271 32.155885 152.51172 31.702057 152.51172 31.087891 L 152.4707 25.203125 L 152.48438 25.203125 L 158.45117 33.220703 L 159.11133 33.220703 L 159.13867 25.519531 L 159.13867 25.039062 C 159.13867 24.764062 159.15669 24.543906 159.19336 24.378906 C 159.23003 24.213906 159.31307 24.085807 159.44141 23.994141 C 159.57891 23.893307 159.78555 23.837292 160.06055 23.828125 L 160.06055 23.375 L 157.53125 23.375 L 157.53125 23.980469 L 158.52148 23.925781 C 158.49402 24.200781 158.47852 24.529064 158.47852 24.914062 L 158.46484 31.212891 L 158.45117 31.212891 L 152.59375 23.375 L 150.95898 23.375 z M 161.4043 23.375 L 161.4043 23.980469 L 162.39453 23.925781 C 162.367 24.200781 162.35352 24.529064 162.35352 24.914062 L 162.35352 30.855469 C 162.35352 31.322969 162.34451 31.653203 162.32617 31.845703 C 162.30784 32.029036 162.2293 32.188672 162.0918 32.326172 C 161.9543 32.463672 161.72513 32.537708 161.4043 32.546875 L 161.4043 33 L 168.5 33 L 168.58203 30.318359 L 168.11328 30.318359 C 168.11328 31.097526 167.94464 31.647917 167.60547 31.96875 C 167.2663 32.280417 166.77643 32.440052 166.13477 32.449219 L 163.50781 32.492188 C 163.53535 32.253853 163.54883 31.894635 163.54883 31.417969 L 163.54883 28.269531 L 164.55273 28.228516 L 164.97852 28.214844 C 165.28102 28.214844 165.51469 28.24638 165.67969 28.310547 C 165.85385 28.365547 165.98391 28.484635 166.06641 28.667969 C 166.14891 28.842135 166.18945 29.100286 166.18945 29.439453 L 166.64258 29.439453 L 166.64258 26.550781 L 166.03711 26.550781 L 166.13477 27.734375 L 163.54883 27.720703 L 163.54883 25.519531 C 163.54883 25.079531 163.56685 24.758307 163.60352 24.556641 C 163.64018 24.345807 163.73224 24.186172 163.87891 24.076172 C 164.02557 23.957005 164.26375 23.891979 164.59375 23.882812 L 165.77734 23.855469 C 166.36401 23.837135 166.81784 23.967187 167.13867 24.242188 C 167.46867 24.517187 167.63281 25.029583 167.63281 25.78125 L 168.08594 25.78125 L 168.01758 23.375 L 161.4043 23.375 z M 188.54883 23.375 L 188.54883 23.980469 L 189.32031 23.953125 C 189.38448 24.420625 189.58016 25.043099 189.91016 25.822266 L 193.03125 33.136719 L 193.41797 33.136719 L 196.31836 25.175781 C 196.49253 24.680781 196.68565 24.337031 196.89648 24.144531 C 197.11648 23.952031 197.42674 23.846458 197.83008 23.828125 L 197.83008 23.375 L 195.03906 23.375 L 195.03906 23.980469 L 196.09766 23.925781 C 196.00599 24.109115 195.87339 24.448359 195.69922 24.943359 L 195.38281 25.822266 L 194.17383 29.21875 L 193.99414 29.712891 L 193.48633 31.185547 L 193.45898 31.185547 C 193.31232 30.79138 193.05867 30.184974 192.70117 29.369141 L 192.34375 28.53125 C 192.17875 28.14625 192.00109 27.719453 191.80859 27.251953 C 191.62526 26.784453 191.48815 26.436198 191.39648 26.207031 L 191.03906 25.328125 C 190.91073 25.016458 190.8457 24.753802 190.8457 24.542969 C 190.8457 24.322969 190.91523 24.158828 191.05273 24.048828 C 191.1994 23.929661 191.42406 23.86013 191.72656 23.841797 L 191.74023 23.828125 L 191.74023 23.375 L 188.54883 23.375 z M 198.33008 23.375 L 198.33008 23.980469 L 199.32031 23.925781 C 199.29285 24.200781 199.2793 24.529064 199.2793 24.914062 L 199.2793 30.855469 C 199.2793 31.322969 199.27029 31.653203 199.25195 31.845703 C 199.23362 32.029036 199.15508 32.188672 199.01758 32.326172 C 198.88008 32.463672 198.65091 32.537708 198.33008 32.546875 L 198.33008 33 L 205.42578 33 L 205.50781 30.318359 L 205.04102 30.318359 C 205.04102 31.097526 204.87042 31.647917 204.53125 31.96875 C 204.19208 32.280417 203.70221 32.440052 203.06055 32.449219 L 200.43359 32.492188 C 200.46106 32.253853 200.47461 31.894635 200.47461 31.417969 L 200.47461 28.269531 L 201.47852 28.228516 L 201.90625 28.214844 C 202.20875 28.214844 202.44242 28.24638 202.60742 28.310547 C 202.78159 28.365547 202.90969 28.484635 202.99219 28.667969 C 203.07469 28.842135 203.11523 29.100286 203.11523 29.439453 L 203.56836 29.439453 L 203.56836 26.550781 L 202.96484 26.550781 L 203.06055 27.734375 L 200.47461 27.720703 L 200.47461 25.519531 C 200.47461 25.079531 200.49458 24.758307 200.53125 24.556641 C 200.56792 24.345807 200.65802 24.186172 200.80469 24.076172 C 200.95135 23.957005 201.18953 23.891979 201.51953 23.882812 L 202.70312 23.855469 C 203.28979 23.837135 203.74362 23.967187 204.06445 24.242188 C 204.39445 24.517187 204.55859 25.029583 204.55859 25.78125 L 205.01367 25.78125 L 204.94336 23.375 L 198.33008 23.375 z M 183.21094 23.705078 C 183.9351 23.705078 184.56854 23.93875 185.10938 24.40625 C 185.6502 24.864583 186.06349 25.460026 186.34766 26.193359 C 186.63182 26.917526 186.77344 27.670052 186.77344 28.449219 C 186.77344 29.155052 186.64083 29.829036 186.375 30.470703 C 186.11833 31.11237 185.73208 31.638281 185.21875 32.050781 C 184.71458 32.454115 184.10563 32.65625 183.39062 32.65625 C 182.62063 32.65625 181.96466 32.418073 181.42383 31.941406 C 180.88299 31.455573 180.48068 30.85112 180.21484 30.126953 C 179.94901 29.39362 179.81641 28.66362 179.81641 27.939453 C 179.81641 27.23362 179.94451 26.55513 180.20117 25.904297 C 180.46701 25.253464 180.85581 24.727552 181.36914 24.324219 C 181.88247 23.911719 182.49594 23.705078 183.21094 23.705078 z M 80.199219 23.882812 C 81.033385 23.882812 81.651353 24.057917 82.054688 24.40625 C 82.458021 24.754583 82.660156 25.277943 82.660156 25.974609 C 82.660156 27.450443 81.725469 28.1875 79.855469 28.1875 C 79.727135 28.1875 79.525 28.17849 79.25 28.160156 L 79.25 25.519531 C 79.25 25.052031 79.25901 24.726302 79.277344 24.542969 C 79.295677 24.359635 79.374219 24.204505 79.511719 24.076172 C 79.649219 23.947839 79.878385 23.882812 80.199219 23.882812 z M 118.06445 23.882812 C 118.95362 23.882812 119.65013 24.075937 120.1543 24.460938 C 120.65846 24.845938 120.91016 25.450391 120.91016 26.275391 C 120.91016 26.797891 120.78206 27.256224 120.52539 27.650391 C 120.27789 28.035391 119.93414 28.334089 119.49414 28.544922 C 119.06331 28.746589 118.58695 28.847656 118.06445 28.847656 C 117.69779 28.847656 117.39909 28.834141 117.16992 28.806641 L 117.16992 25.519531 C 117.16992 25.042865 117.17893 24.717135 117.19727 24.542969 C 117.2156 24.359635 117.28513 24.204505 117.4043 24.076172 C 117.53263 23.947839 117.75279 23.882812 118.06445 23.882812 z M 134.90234 23.882812 C 135.73651 23.882812 136.35643 24.057917 136.75977 24.40625 C 137.1631 24.754583 137.36523 25.277943 137.36523 25.974609 C 137.36523 27.450443 136.42859 28.1875 134.55859 28.1875 C 134.43026 28.1875 134.23008 28.17849 133.95508 28.160156 L 133.95508 25.519531 C 133.95508 25.052031 133.96409 24.726302 133.98242 24.542969 C 134.00076 24.359635 134.07734 24.204505 134.21484 24.076172 C 134.35234 23.947839 134.58151 23.882812 134.90234 23.882812 z M 173.03711 23.882812 C 173.87128 23.882812 174.4912 24.057917 174.89453 24.40625 C 175.29786 24.754583 175.5 25.277943 175.5 25.974609 C 175.5 27.450443 174.56336 28.1875 172.69336 28.1875 C 172.56503 28.1875 172.36484 28.17849 172.08984 28.160156 L 172.08984 25.519531 C 172.08984 25.052031 172.09885 24.726302 172.11719 24.542969 C 172.13552 24.359635 172.21211 24.204505 172.34961 24.076172 C 172.48711 23.947839 172.71628 23.882812 173.03711 23.882812 z "
     id="path4239" />
  <path
     style="color:#000000;font-style:normal;font-variant:normal;font-weight:normal;font-stretch:normal;font-size:medium;line-height:normal;font-family:sans-serif;text-indent:0;text-align:start;text-decoration:none;text-decoration-line:none;text-decoration-style:solid;text-decoration-color:#000000;letter-spacing:normal;word-spacing:normal;text-transform:none;direction:ltr;block-progression:tb;writing-mode:lr-tb;baseline-shift:baseline;text-anchor:start;white-space:normal;clip-rule:nonzero;display:inline;overflow:visible;visibility:visible;opacity:1;isolation:auto;mix-blend-mode:normal;color-interpolation:sRGB;color-interpolation-filters:linearRGB;solid-color:#000000;solid-opacity:1;fill:#f84141;fill-opacity:1;fill-rule:evenodd;stroke:none;stroke-width:5;stroke-linecap:butt;stroke-linejoin:miter;stroke-miterlimit:4;stroke-dasharray:none;stroke-dashoffset:0;stroke-opacity:1;color-rendering:auto;image-rendering:auto;shape-rendering:auto;text-rendering:auto;enable-background:accumulate"
     d="m 20.5625,15.947266 c -1.774176,1.694012 -4.358474,2.462194 -6.890625,1.783203 -1.103808,-0.296074 -2.075062,-0.840771 -2.882813,-1.548828 -0.367282,0.27807 -0.717959,0.572914 -1.0371089,0.890625 C 8.204676,18.612563 7.1261064,20.524196 6.3066406,22.5 4.6677091,26.451608 4.0527344,30.630024 4.0527344,33.271484 l 5,0 c 0,-1.738724 0.5715971,-5.717558 1.8730466,-8.855468 0.650725,-1.568956 1.482548,-2.933742 2.353516,-3.800782 0.870968,-0.867039 1.656596,-1.255483 2.705078,-1.273437 1.056553,-0.01809 1.267976,0.176863 1.792969,0.833984 0.524992,0.657121 1.076639,1.911286 1.658203,3.382813 0.581564,1.471527 1.196567,3.160037 2.419922,4.695312 1.223355,1.535276 3.319241,2.795939 5.792969,2.814453 4.369568,0.0327 7.005312,-2.531046 8.457031,-4.30664 0.725859,-0.887798 1.280273,-1.555215 1.785156,-1.929688 0.504883,-0.374473 0.922823,-0.580078 1.957031,-0.580078 1.944929,0 3.644143,1.26524 5.013672,3.291016 1.369529,2.025776 2.130859,4.750329 2.13086,6.050781 l 5,0 c 0,-2.77628 -1.04426,-5.974057 -2.988282,-8.849609 -1.063248,-1.572734 -2.490839,-3.04994 -4.224609,-4.082032 -1.776106,1.760412 -4.411266,2.56677 -6.990235,1.875 -1.147892,-0.307898 -2.154555,-0.882492 -2.980468,-1.632812 -1.164617,0.891492 -1.922125,1.895784 -2.574219,2.693359 -1.345845,1.646101 -1.781829,2.491413 -4.548828,2.470703 C 26.59099,26.060159 26.31332,25.826013 25.765625,25.138672 25.21793,24.45133 24.66439,23.189299 24.083984,21.720703 23.503578,20.252107 22.899646,18.576792 21.683594,17.054688 21.368111,16.659805 20.989216,16.285994 20.5625,15.947266 Z"
     id="path4213"
     inkscape:connector-curvature="0"
     sodipodi:nodetypes="cccssccsssssssssssccscscsssssc" />
  <ellipse
     transform="matrix(0.96585891,0.25906864,-0.25856966,0.96599261,0,0)"
     cy="6.5630832"
     cx="17.868382"
     id="circle4215"
     style="fill:#f84141;fill-opacity:1;stroke:none;stroke-width:2;stroke-linecap:round;stroke-linejoin:round;stroke-miterlimit:4;stroke-dasharray:none;stroke-opacity:1"
     rx="5.0003462"
     ry="5.0048223" />
  <ellipse
     style="fill:#f84141;fill-opacity:1;stroke:none;stroke-width:2;stroke-linecap:round;stroke-linejoin:round;stroke-miterlimit:4;stroke-dasharray:none;stroke-opacity:1"
     id="circle4217"
     cx="42.349964"
     cy="5.0932741"
     transform="matrix(0.96585891,0.25906864,-0.25856966,0.96599261,0,0)"
     rx="5.0003462"
     ry="5.0048223" />
</svg>
